<svg width="48" height="48" viewBox="0 0 48 48" fill="none" xmlns="http://www.w3.org/2000/svg">
<rect width="48" height="48" rx="24" fill="#F2F2F2"/>
<path d="M23.9998 14C18.4771 14 14 18.4936 14 24.0367C14 28.7436 17.2287 32.6932 21.5842 33.778V27.104H19.5223V24.0367H21.5842V22.7151C21.5842 19.299 23.1246 17.7156 26.4662 17.7156C27.0997 17.7156 28.1929 17.8405 28.6401 17.9649V20.7451C28.4041 20.7202 27.9941 20.7078 27.4849 20.7078C25.8454 20.7078 25.2118 21.3312 25.2118 22.952V24.0367H28.4781L27.9169 27.104H25.2118V34C30.1633 33.3998 34 29.1683 34 24.0367C33.9996 18.4936 29.5225 14 23.9998 14Z" fill="#040404"/>
</svg>
