<svg width="254" height="18" viewBox="0 0 254 18" fill="none" xmlns="http://www.w3.org/2000/svg">
<path d="M102.743 10.7949H99.1406V17.992H102.743V10.7949Z" fill="#040404"/>
<path d="M79.3245 3.59863H79.2617V3.60593H79.3245V3.59863Z" fill="#040404"/>
<path d="M23.4778 0H19.875V17.9927H23.4778V0Z" fill="#040404"/>
<path d="M39.6301 7.2039V3.60537H28.8216V14.401H39.6301V10.8024H43.2329V17.9995H25.2188V0.00683594H43.2329V7.2039H39.6301Z" fill="#040404"/>
<path d="M63.1118 0V3.59853H55.9062V17.9927H52.3033V3.59853H45.0977V0H63.1118Z" fill="#040404"/>
<path d="M102.745 0V7.19706H99.1418V3.59853H88.3333V7.19706H99.1418V10.7956H88.3333V17.9927H84.7305V0H102.745Z" fill="#040404"/>
<path d="M82.9283 3.59853V17.9927H68.5169V17.9999H64.9141V14.4013H68.5169V14.3941H79.3254V3.59853H68.5169V14.3941H64.9141V0H79.3254V0.0071975H82.8663V3.59853H82.9283Z" fill="#040404"/>
<path d="M18.0142 0.0146484L10.8409 17.926L10.8114 17.9994H7.20279L7.17325 17.926L0 0.0146484H3.60284L9.0071 13.3882L14.4114 0.0146484H18.0142Z" fill="#040404"/>
<path d="M154.983 14.3941V17.9927H136.969V0H140.572V14.3941H154.983Z" fill="#040404"/>
<path d="M117.156 0.00390625V17.9966H120.759V10.7995H131.568V17.9966H135.17V0.00390625H117.156ZM131.568 7.20097H120.759V3.60244H131.568V7.20097Z" fill="#040404"/>
<path d="M160.388 3.59853V7.19706H167.594V10.7956H160.388V14.3941H174.8V17.9927H156.785V0H174.8V3.59853H160.388Z" fill="#040404"/>
<path d="M200.017 3.59853V7.19706H207.223V10.7956H200.017V14.3941H214.428V17.9927H196.414V0H214.428V3.59853H200.017Z" fill="#040404"/>
<path d="M219.833 3.59853V7.19706H227.039V10.7956H219.833V14.3941H234.245V17.9927H216.23V0H234.245V3.59853H219.833Z" fill="#040404"/>
<path d="M194.616 0V2.9983L191.615 5.99731L188.612 8.99633L185.609 5.99731L188.612 2.9983L191.615 0H194.616Z" fill="#040404"/>
<path d="M185.609 11.9944L182.607 14.9934L179.604 17.9924H176.602V14.9934L179.604 11.9944L182.607 8.99609L185.609 11.9944Z" fill="#040404"/>
<path d="M185.609 5.99731L182.607 8.99633L179.604 5.99731L176.602 2.9983V0H179.604L182.607 2.9983L185.609 5.99731Z" fill="#040404"/>
<path d="M194.616 14.9934V17.9924H191.615L188.612 14.9934L185.609 11.9944L188.612 8.99609L191.615 11.9944L194.616 14.9934Z" fill="#040404"/>
<path d="M253.999 0.0146484L246.825 17.926L246.796 17.9994H243.187L243.158 17.926L235.984 0.0146484H239.587L244.991 13.3882L250.396 0.0146484H253.999Z" fill="#040404"/>
</svg>
