<svg width="48" height="48" viewBox="0 0 48 48" fill="none" xmlns="http://www.w3.org/2000/svg">
<rect width="48" height="48" rx="24" fill="#F2F2F2"/>
<path d="M24.0059 15.8011C26.6793 15.8011 26.9959 15.8129 28.0473 15.8597C29.0244 15.9027 29.5521 16.0668 29.9038 16.2036C30.369 16.3833 30.7051 16.6021 31.053 16.9498C31.4047 17.3014 31.6197 17.6335 31.7995 18.0985C31.9363 18.4501 32.1005 18.9814 32.1434 19.9543C32.1903 21.0092 32.2021 21.3256 32.2021 23.9941C32.2021 26.6665 32.1903 26.983 32.1434 28.034C32.1005 29.0107 31.9363 29.5382 31.7995 29.8898C31.6197 30.3548 31.4008 30.6908 31.053 31.0385C30.7012 31.3901 30.369 31.605 29.9038 31.7847C29.5521 31.9215 29.0205 32.0856 28.0473 32.1285C26.992 32.1754 26.6754 32.1871 24.0059 32.1871C21.3324 32.1871 21.0158 32.1754 19.9644 32.1285C18.9873 32.0856 18.4596 31.9215 18.1079 31.7847C17.6428 31.605 17.3066 31.3862 16.9588 31.0385C16.607 30.6869 16.392 30.3548 16.2122 29.8898C16.0754 29.5382 15.9113 29.0068 15.8683 28.034C15.8214 26.9791 15.8097 26.6626 15.8097 23.9941C15.8097 21.3217 15.8214 21.0053 15.8683 19.9543C15.9113 18.9775 16.0754 18.4501 16.2122 18.0985C16.392 17.6335 16.6109 17.2975 16.9588 16.9498C17.3105 16.5982 17.6428 16.3833 18.1079 16.2036C18.4596 16.0668 18.9912 15.9027 19.9644 15.8597C21.0158 15.8129 21.3324 15.8011 24.0059 15.8011ZM24.0059 14C21.2894 14 20.9494 14.0117 19.8824 14.0586C18.8192 14.1055 18.0883 14.2774 17.4551 14.5235C16.7946 14.7814 16.2357 15.1213 15.6807 15.68C15.1218 16.2348 14.7817 16.7935 14.5237 17.4499C14.2775 18.0867 14.1055 18.8134 14.0586 19.8761C14.0117 20.9467 14 21.2866 14 24.002C14 26.7173 14.0117 27.0572 14.0586 28.1239C14.1055 29.1866 14.2775 29.9172 14.5237 30.5501C14.7817 31.2104 15.1218 31.7691 15.6807 32.3239C16.2357 32.8787 16.7946 33.2225 17.4512 33.4765C18.0883 33.7226 18.8153 33.8945 19.8784 33.9414C20.9455 33.9883 21.2855 34 24.002 34C26.7184 34 27.0584 33.9883 28.1255 33.9414C29.1886 33.8945 29.9195 33.7226 30.5527 33.4765C31.2093 33.2225 31.7682 32.8787 32.3232 32.3239C32.8782 31.7691 33.2222 31.2104 33.4763 30.554C33.7225 29.9172 33.8945 29.1905 33.9414 28.1278C33.9883 27.0611 34 26.7212 34 24.0059C34 21.2905 33.9883 20.9506 33.9414 19.884C33.8945 18.8213 33.7225 18.0906 33.4763 17.4577C33.23 16.7935 32.89 16.2348 32.3311 15.68C31.776 15.1252 31.2171 14.7814 30.5605 14.5274C29.9234 14.2813 29.1964 14.1094 28.1333 14.0625C27.0623 14.0117 26.7223 14 24.0059 14Z" fill="#040404"/>
<path d="M24 19C21.2395 19 19 21.2395 19 24C19 26.7605 21.2395 29 24 29C26.7605 29 29 26.7605 29 24C29 21.2395 26.7605 19 24 19ZM24 27.2433C22.2091 27.2433 20.7567 25.7909 20.7567 24C20.7567 22.2091 22.2091 20.7567 24 20.7567C25.7909 20.7567 27.2433 22.2091 27.2433 24C27.2433 25.7909 25.7909 27.2433 24 27.2433Z" fill="#040404"/>
<path d="M30 19C30 19.5537 29.5505 20 29 20C28.4463 20 28 19.5505 28 19C28 18.4463 28.4495 18 29 18C29.5505 18 30 18.4495 30 19Z" fill="#040404"/>
</svg>
