<svg width="46" height="30" viewBox="0 0 46 30" fill="none" xmlns="http://www.w3.org/2000/svg">
<rect x="2.96094" width="43" height="24" rx="12" transform="rotate(7.0863 2.96094 0)" fill="#5C8D3E"/>
<path d="M11.1207 5.43814L10.9826 6.54959C13.1062 6.84584 14.0596 7.99624 13.8426 10.0008L12.5089 9.83498L12.5208 9.73972C12.6629 8.59651 12.1028 7.91421 10.8444 7.66103L10.3549 11.5987C10.8154 11.785 11.1509 11.9395 11.3931 12.0664C11.6373 12.1773 11.9232 12.3419 12.2667 12.5619C12.6082 12.7979 12.8544 13.0219 13.0193 13.252C13.1683 13.4802 13.2935 13.7698 13.3949 14.121C13.4785 14.4861 13.5106 14.8771 13.4553 15.3216C13.3329 16.3061 12.9186 17.0446 12.2442 17.5412C11.552 18.0517 10.6531 18.2785 9.53179 18.2198L9.36796 19.5376L8.62171 19.4448L8.78553 18.127C7.71374 17.9293 6.91169 17.5071 6.34961 16.8407C5.78753 16.1742 5.59047 15.2952 5.72469 14.2155L5.74443 14.0567L7.09404 14.2245C7.07027 14.286 7.06237 14.3496 7.0525 14.4289C6.87881 15.8262 7.49659 16.693 8.92568 16.9997L9.46848 12.6333C8.4462 12.2966 7.69377 11.8645 7.18138 11.3171C6.66899 10.7697 6.46807 10.0514 6.5786 9.16226C6.69506 8.22547 7.08753 7.53259 7.75603 7.08363C8.42452 6.63467 9.24201 6.41383 10.2383 6.44094L10.3745 5.34537L11.1207 5.43814ZM9.62638 11.3631L10.0942 7.60002C9.4849 7.57265 8.98489 7.70397 8.59412 7.99397C8.20336 8.28398 7.97541 8.69097 7.9083 9.23082C7.84119 9.77066 7.96255 10.2211 8.27634 10.5503C8.59012 10.8795 9.04079 11.1451 9.62638 11.3631ZM10.193 12.9007L9.67193 17.0924C10.309 17.1555 10.8428 17.0123 11.3069 16.6508C11.7532 16.3032 12.0228 15.8207 12.0998 15.2015C12.23 14.1536 11.5845 13.38 10.193 12.9007ZM15.0148 10.9043C15.1906 9.74915 15.6187 8.89947 16.3169 8.34134C17.0151 7.78321 17.9278 7.57421 19.0393 7.71238C20.0237 7.83476 20.7999 8.20535 21.3362 8.8202C21.8724 9.43505 22.0872 10.1712 21.9767 11.0603C21.9116 11.5843 21.7094 12.0429 21.3882 12.4221C21.067 12.8014 20.6464 13.0716 20.1444 13.2188C20.7618 13.4406 21.2145 13.8194 21.5344 14.359C21.8404 14.8807 21.9579 15.4919 21.871 16.1905C21.7427 17.2225 21.2888 18.0206 20.4795 18.5649C19.6701 19.1093 18.6919 19.3262 17.5487 19.1841C16.4055 19.042 15.524 18.61 14.9203 17.89C14.3165 17.17 14.0876 16.287 14.2199 15.2232L14.2456 15.0168L15.5793 15.1826C15.5123 15.9804 15.6577 16.6273 16.0311 17.1252C16.3906 17.6052 16.9505 17.9005 17.7126 17.9953C18.4271 18.0841 19.0402 17.9507 19.5361 17.5932C20.032 17.2356 20.3195 16.7393 20.4004 16.0883C20.4813 15.4373 20.3242 14.8857 19.9289 14.4335C19.5317 13.9971 18.9381 13.7137 18.176 13.619C17.9855 13.5953 17.7434 13.5975 17.4377 13.5917L17.5799 12.4485C17.7367 12.4841 17.8796 12.5019 18.0383 12.5216C18.737 12.6085 19.3124 12.5188 19.7667 12.2367C20.221 11.9546 20.4687 11.5178 20.5398 10.9462C20.6069 10.4063 20.4875 9.94006 20.1816 9.54732C19.8738 9.17047 19.4192 8.9366 18.8317 8.86356C18.1489 8.77869 17.5973 8.93584 17.163 9.31717C16.7286 9.6985 16.4472 10.2762 16.3326 11.0681L15.0148 10.9043ZM27.6417 8.76565C28.3085 8.84856 28.8802 9.04861 29.325 9.36187C29.7697 9.67513 30.1133 10.0242 30.3239 10.4051C30.5326 10.8018 30.6639 11.3019 30.7516 11.8932C30.8234 12.4826 30.8536 13.0184 30.8281 13.4828C30.8026 13.9472 30.7494 14.5049 30.6704 15.14C30.5954 15.7433 30.4985 16.2634 30.3917 16.7338C30.2848 17.2042 30.1264 17.7004 29.9045 18.1888C29.6806 18.693 29.4209 19.0961 29.1234 19.4138C28.81 19.7295 28.4113 19.9541 27.9391 20.1211C27.451 20.2861 26.8973 20.3302 26.2781 20.2532C25.6112 20.1703 25.0535 19.9881 24.6048 19.7066C24.1561 19.4251 23.8105 19.0919 23.5979 18.7269C23.3714 18.344 23.2183 17.8897 23.1247 17.346C23.031 16.8023 22.9969 16.2982 23.0085 15.8159C23.036 15.3357 23.0713 14.7919 23.1483 14.1726C23.2135 13.6487 23.2866 13.1902 23.3677 12.7972C23.4468 12.4201 23.5497 11.9814 23.6903 11.4991C23.8309 11.0167 24.0092 10.6197 24.2114 10.2901C24.4295 9.96253 24.6912 9.67261 25.0006 9.38861C25.2922 9.11851 25.6711 8.92377 26.1196 8.81828C26.568 8.7128 27.0701 8.6946 27.6417 8.76565ZM27.4917 9.97237C27.1582 9.93092 26.8645 9.9589 26.5947 10.0543C26.3249 10.1498 26.1027 10.2511 25.9241 10.3902C25.7456 10.5292 25.5731 10.7496 25.4225 11.0534C25.256 11.3551 25.145 11.5993 25.0717 11.7998C24.9965 12.0162 24.9272 12.3139 24.8461 12.7069C24.765 13.0999 24.7136 13.3837 24.6939 13.5425L24.5932 14.3523C24.5458 14.7333 24.5083 15.035 24.4946 15.2751C24.463 15.5292 24.4553 15.8507 24.4556 16.2377C24.438 16.6386 24.4759 16.9819 24.5555 17.2497C24.6192 17.5156 24.7285 17.8033 24.8557 18.0771C24.9829 18.3509 25.1636 18.5829 25.4337 18.7455C25.7037 18.908 26.0133 19.011 26.3944 19.0584C26.7119 19.0979 26.9878 19.0838 27.2576 18.9884C27.5255 18.9088 27.7497 18.7916 27.9282 18.6525C28.1067 18.5135 28.2613 18.307 28.408 18.035C28.5547 17.763 28.6657 17.5188 28.7568 17.3044C28.8321 17.0881 28.8994 16.8062 28.9765 16.445C29.0537 16.0837 29.1031 15.8158 29.1248 15.6411C29.1465 15.4665 29.194 15.2144 29.2374 14.8651L29.3361 14.0712C29.3558 13.9124 29.3735 13.6405 29.3911 13.2396C29.4067 12.8546 29.3966 12.547 29.3766 12.3188C29.3546 12.1065 29.3068 11.8426 29.2351 11.5112C29.1456 11.1937 29.0482 10.9398 28.9092 10.7613C28.7701 10.5827 28.5795 10.4301 28.3413 10.2715C28.103 10.1129 27.8092 10.0118 27.4917 9.97237ZM36.1468 9.82296C36.8137 9.90586 37.3854 10.1059 37.8301 10.4192C38.2749 10.7324 38.6185 11.0815 38.8291 11.4624C39.0377 11.8591 39.169 12.3592 39.2568 12.9505C39.3286 13.5399 39.3587 14.0757 39.3332 14.5401C39.3078 15.0045 39.2546 15.5622 39.1756 16.1973C39.1006 16.8007 39.0037 17.3207 38.8969 17.7911C38.79 18.2615 38.6316 18.7577 38.4096 19.2461C38.1857 19.7503 37.926 20.1534 37.6286 20.4711C37.3152 20.7868 36.9165 21.0114 36.4442 21.1784C35.9562 21.3434 35.4025 21.3875 34.7833 21.3105C34.1164 21.2276 33.5586 21.0454 33.1099 20.7639C32.6612 20.4824 32.3157 20.1492 32.1031 19.7842C31.8766 19.4013 31.7235 18.947 31.6298 18.4033C31.5362 17.8596 31.5021 17.3555 31.5137 16.8733C31.5411 16.393 31.5765 15.8492 31.6535 15.2299C31.7186 14.706 31.7917 14.2475 31.8728 13.8545C31.952 13.4774 32.0549 13.0387 32.1954 12.5564C32.336 12.074 32.5144 11.677 32.7166 11.3474C32.9346 11.0198 33.1964 10.7299 33.5058 10.4459C33.7974 10.1758 34.1763 9.98108 34.6247 9.87559C35.0731 9.77011 35.5752 9.75191 36.1468 9.82296ZM35.9968 11.0297C35.6634 10.9882 35.3697 11.0162 35.0999 11.1116C34.83 11.2071 34.6078 11.3085 34.4293 11.4475C34.2508 11.5865 34.0783 11.8069 33.9277 12.1107C33.7612 12.4124 33.6502 12.6566 33.5769 12.8571C33.5016 13.0735 33.4324 13.3712 33.3513 13.7642C33.2702 14.1572 33.2188 14.441 33.199 14.5998L33.0984 15.4096C33.051 15.7906 33.0135 16.0923 32.9998 16.3324C32.9682 16.5865 32.9605 16.908 32.9607 17.295C32.9431 17.6959 32.9811 18.0392 33.0606 18.307C33.1243 18.5729 33.2337 18.8606 33.3609 19.1344C33.488 19.4082 33.6688 19.6403 33.9388 19.8028C34.2088 19.9654 34.5185 20.0683 34.8995 20.1157C35.2171 20.1552 35.4929 20.1411 35.7628 20.0457C36.0306 19.9661 36.2548 19.8489 36.4333 19.7098C36.6118 19.5708 36.7665 19.3643 36.9132 19.0923C37.0599 18.8203 37.1708 18.5761 37.262 18.3618C37.3372 18.1454 37.4045 17.8635 37.4817 17.5023C37.5588 17.1411 37.6083 16.8731 37.63 16.6984C37.6517 16.5238 37.6991 16.2717 37.7426 15.9224L37.8413 15.1285C37.861 14.9697 37.8787 14.6978 37.8963 14.297C37.9119 13.9119 37.9017 13.6043 37.8817 13.3761C37.8598 13.1638 37.812 12.8999 37.7403 12.5685C37.6508 12.251 37.5534 11.9971 37.4143 11.8186C37.2753 11.6401 37.0847 11.4874 36.8464 11.3288C36.6082 11.1702 36.3144 11.0692 35.9968 11.0297Z" fill="white"/>
<path d="M6 16C6.01176 15.9945 6.02351 15.9889 11.5139 15.2713C17.0043 14.5537 27.973 13.1242 39.529 11.7308" stroke="#8D1D1C" stroke-width="1.5" stroke-linecap="round"/>
</svg>
