<!-- icon666.com - MILLIONS OF FREE VECTOR ICONS --><svg id="svg903" viewBox="0 0 135.46666 135.46667" xmlns="http://www.w3.org/2000/svg" xmlns:svg="http://www.w3.org/2000/svg"><g id="layer1"><g id="g4882"><path id="path4858" d="m54.647905 2.9544685c-2.938571 0-7.042878 1.5645249-17.730138 6.3767505-3.168783 1.426825-7.043812 2.960132-8.332143 3.329678-2.28354.655007-2.501937.688713-3.885451.459917-1.151106-.190392-2.126127-.210405-2.997902.06308-.871775.273481-1.580943.885893-2.038335 1.671792-.592964 1.018855-.700873 2.166403-.374489 3.16677.251518.770904.729705 1.447731 1.351439 2.022442.0113.352226.06664.699013.174332 1.029101.326382 1.000366 1.031735 1.844533 1.941484 2.509178 1.111114.81176 2.547206 1.378066 4.151668 1.603749-3.33324 6.00674-6.180588 12.791896-6.990636 16.942418-.37967 1.945425-.370461 3.83232-.006 5.438042.281497 1.240081.772792 2.341868 1.544645 3.123562.369482 1.57426 1.078532 2.921696 2.282696 3.655989.376082.229329.775709.398229 1.183069.5071-.128162.03074-.258111.05951-.384423.09189-2.056396.527108-3.837079 1.198765-4.933923 2.295609-.853115.853117-1.052618 2.107078-.676465 3.144422.249944.689284.721162 1.301861 1.353427 1.785528-.03141.430614.02675.864502.172344 1.266014.376153 1.037341 1.244791 1.907687 2.426732 2.412824v.000509c.574669.245262 1.03384.23224 1.794966.265222.761125.03299 1.712902.03081 2.781851-.0084 3.80152-.139483 7.36884-.859039 9.537561-2.077075 1.22216-.686376 1.998625-1.787782 2.059196-2.983498.05557-1.09706-.529168-2.170535-1.541665-2.875225.0065-.05859.01289-.117227.01589-.176318.05946-1.173969-.613948-2.320962-1.760697-3.017769.397629-.007.786316-.07837 1.149791-.228965.833572-.345382 1.476954-1.067672 1.828741-1.972774.26865-.691208.566562-2.032447.834406-3.406664.346124-1.775951 1.141841-4.486286 2.054726-7.072585.09503 1.786716.650937 3.332831 1.696128 4.526157.0094.01068.01933.02029.02881.03079.261197 1.156756.757596 2.176591 1.496965 3.02075.526609.601258 1.234483.901362 1.964827.998803-.08181.08166-.163161.165327-.243368.251317-.695788.745927-1.34542 1.720218-1.926584 2.816119-1.16233 2.191813-2.053731 4.837228-2.053731 7.09742 0 1.371808.478944 2.688197 1.210384 3.721053.136671.19299.285718.374974.444025.546338.09794.481976.249738.946601.446506 1.38422-.552728.272178-1.019083.374661-1.467662.353631-.631021-.0296-1.333404-.31229-2.25687-1.001287-.978739-.730229-1.860228-1.207069-2.801718-1.314689-.94149-.107615-1.864647.251376-2.592122.87712-.826361.710783-1.197265 1.771797-1.283395 2.881681-.08613 1.109887.120002 2.308932.640208 3.415602.25218.536502.61127 1.070545 1.030094 1.584877.109273.496311.271669.990119.495678 1.466665.454832.96764 1.2498 1.929435 2.13568 2.776388.885888.846953 1.815299 1.561217 2.780362 1.888839.473592.160791.974683.205269 1.615171.248334.640489.04307 1.368185.05487 2.060188.02533 3.664183-.156379 6.904677-1.786002 9.684078-4.912566 1.265877-1.42399 2.448866-3.156389 3.575035-5.208086.269807 1.254235.803463 2.368483 1.571961 3.265608.518818 2.142796 1.822577 3.85685 3.759793 4.729792 2.759968 1.243679 6.526052-.08164 9.574812-2.748575 1.502336-1.31421 2.735225-2.920919 3.684796-4.648834.302126.751439.700218 1.43324 1.184063 2.024429.717379 2.704126 2.57983 4.729552 5.125637 5.303942 2.094071.472477 4.272244-.232147 6.297283-1.825263 2.025044-1.593116 3.980035-4.075182 5.886042-7.396911 1.337035-2.330112 2.378181-4.782764 3.027702-7.031362.203151-.703304.365394-1.381306.490212-2.035356.148079.223821.320255.437469.520512.637724.125831.125836.263081.241716.406773.350651-.000508.02606-.0025.05185-.0025.07798 0 .992885.390033 1.891478 1.121483 2.622915.56497.56499 1.31707.973312 2.20372 1.077278-.61754.806444-1.30455 1.787322-2.12674 2.997406-9.353476 13.766162-20.557885 19.730532-38.417946 20.412602-12.956992.494831-25.465636-3.214093-31.142222-8.904802-1.585907-1.589811-3.092423-3.726336-4.845517-6.929049-.629179-1.149414-1.078574-1.905274-1.750763-2.443121-.67219-.537847-1.510992-.670719-2.357198-.646665-2.036262.05789-4.161668 1.581302-6.329566 3.65897-2.1679 2.077668-4.272628 4.794848-5.669492 7.572733-1.9598061 3.89728-2.5386763 6.300034-2.5215953 10.473288.01286 3.170764.1500593 4.140412.8602329 6.197452.5776293 1.673089 1.2675364 3.197243 2.1600194 4.71737 1.676878 4.01985 4.258913 7.40317 9.373162 12.49921 11.076407 11.03703 23.516661 17.10084 37.951077 18.4662 14.578915 1.37902 31.469366-2.69996 43.268428-10.46832 9.71076-6.39346 18.10833-15.52402 22.04819-24.085031 2.36165-5.131652 3.51867-11.13707 2.82059-15.364-.30073-1.821108-1.30673-4.238987-2.57076-6.414498-.75533-1.795479-1.81017-3.682311-2.93383-5.218516-2.14695-2.93518-5.91905-6.227777-9.20628-8.097215.66869-.146258 1.35373-.298985 1.96085-.427633 1.11068-.23535 2.25352-.509483 3.21246-.764376.95895-.254895 1.68268-.461795 2.16797-.676466 1.56302-.691396 2.50502-2.058303 2.35521-3.476691-.10352-.980082-.64867-1.871511-1.51683-2.599573.008-.149602.007-.300432-.009-.451969-.14982-1.418398-1.22424-2.651448-2.8648-3.471728-1.19624-.598133-2.01834-.792803-4.34934-.799143-.33272-.001-.70069.000255-1.11254.003h-.00051c-3.09268.02006-4.17215.166062-6.19547.831924-2.13739.703429-3.86041 1.605765-5.09981 2.709833-.562664.501231-1.02735 1.05647-1.368324 1.651429-.254489-.939341-.741263-1.739944-1.37528-2.302565-.01516-.110832-.03238-.220458-.05265-.327801-.384047-2.033981-1.827061-3.537847-3.565598-3.592914-.78993-.02502-1.610419.31026-2.208196.955097-.241015.259996-.338589.456312-.536901.794176-.198309.337865-.434961.766787-.700303 1.265516-.373158.701369-.805867 1.559519-1.247636 2.455538-.122876-.226124-.27722-.432284-.470347-.608918-.200863-.183708-.427066-.322375-.669015-.424156.0058-.234646.0033-.461658-.01439-.676962-.06196-.755478-.309175-1.462783-.842353-1.950424-.113057-.103402-.235666-.189834-.363068-.266217.847551-.0757 1.678423-.352237 2.394945-.833412v.000509c1.179609-.792135 2.074662-2.104992 3.06545-4.681117.162271-.421916.330958-.896047.503624-1.395643.05262.162476.111013.326479.17582.496173.280737.735091.669284 1.37767 1.175619 1.869965.07581.395309.194417.773792.350152 1.181577.388479 1.017202.97984 1.861706 1.810363 2.368125 1.703615 1.038793 3.770498.848242 5.224978-.49667.50056-.462858.943-.973142 1.21932-1.740831s.46184-1.760608.80461-3.599368c.15419-.82724.25056-1.316776.35959-1.880396.81135 1.542077 1.91603 2.94604 3.34706 4.232627 3.305 2.971498 8.05944 3.723739 12.01346 1.873438 4.83625-2.263166 7.6815-6.881449 7.6815-12.397387-.00018-1.879341-.20524-2.850276-.9238-4.369209-.28196-.595997-.60281-1.1369-.95609-1.61567-.13835-.453451-.32174-.911762-.56968-1.435872-.90593-1.915082-2.21336-3.262825-3.70857-3.800043-1.49521-.53722-3.2428-.03273-4.20829 1.44084v.000509c-.24508.374068-.48565.917061-.47929 1.499448.007.582387.14241 1.190285.37747 2.278228.30137 1.394308.39231 2.714014.31142 3.304348-.25542 1.863325-1.13158 3.226068-2.14711 3.912271-1.01553.686202-2.11592.78358-3.28895.05861-.36663-.22659-.7131-.533438-1.03357-.910893-.23091-.80579-.39876-1.707577-.48624-2.701391l-.13708-1.553583 5.27861-6.15474c3.03464-3.538566 6.95108-7.870995 8.61475-9.538554.87126-.873297 1.69094-1.743291 2.32094-2.454048.31498-.355378.58229-.66992.7907-.934734.20841-.264813.34104-.372433.4912-.767355.45527-1.197497-.007-2.442328-.78374-3.323718-.17144-.194514-.36368-.3742712-.56919-.5403774.0559-.9277831-.3548-1.8285521-.95658-2.5111652-.77685-.8813905-1.9282-1.5133545-3.22985-1.5133545-1.57046 0-3.09901 1.0642979-5.02928 2.7301968-1.12268.9689133-2.35129 2.1925521-3.64904 3.6192363-.11435-.8042466-.44013-1.5354518-1.0286-2.0239313-.13864-.1150757-.28762-.2112245-.44304-.2950221-.003-.2117097-.0136-.4168491-.0363-.6133878-.0979-.8513865-.42884-1.6304356-1.04649-2.1431327-.61765-.5126967-1.41694-.6993118-2.26382-.6993118-1.04176 0-2.00471.5733648-2.8494 1.5054078-.84468.9320431-1.66447 2.2591157-2.60752 4.095047-.31402.6113249-.62888 1.2545399-.94367 1.9136709.063-1.137001-.15414-2.0360215-.73458-2.6785433-.22808-.2524686-.49392-.4468097-.78076-.5925277.024-1.0338606-.20223-1.8581788-.745008-2.4590148-.626937-.693976-1.532467-.9601697-2.405376-.9332436-.872787.026923-1.761444.3395749-2.488815.9516205-1.278345 1.075658-2.294435 2.9851844-3.516425 6.2317229-.631974 1.679005-1.31436 3.761896-2.063664 6.260033.0044-.194402.01493-.460124.0149-.602958-.000152-1.804474-.227609-3.195821-.971882-4.240598-.190966-.268073-.41634-.497996-.669015-.692359-.133167-.929831-.395391-1.711542-.856757-2.359184-.744268-1.0447775-2.005799-1.5168313-3.405666-1.5168313-.609312 0-1.173277.043856-1.711526.3208491-.538252.2769936-.934383.6791192-1.50243 1.2719732-1.034696 1.079875-2.14186 2.94124-3.265605 5.267685-.0067-.105907-.01101-.215466-.02184-.315882-.07503-.694694-.282383-1.257083-.56968-1.850594-.257131-.531149-.592152-.996889-.981918-1.39316-.09014-.607904-.283648-1.120837-.543853-1.658383-.878683-1.8150845-2.645079-2.890636-4.52517-2.8985675-.854584-.0036034-1.730102.2066683-2.554871.6347448-1.057926.5490935-2.125903 1.4764677-3.222398 2.7247337-.209929-1.023883-.73665-1.9567737-1.471136-2.7391373-.217039-1.558955-1.167063-2.928961-2.487836-3.9068207-1.50849-1.1168436-3.521165-1.7755965-5.716674-1.7755965zm5.668002 12.9094555c.265723.02069.496086.03433.70825.04122-.176611.2888-.353875.585354-.530442.873147-.0073-.267566-.03858-.529298-.123176-.774309-.01663-.04819-.03564-.09403-.05463-.140061zm-8.244729 1.421967c-.276488.375198-.562216.777604-.859238 1.206909-.27027.390634-.545146.802231-.820997 1.224789-.178622-.166035-.372866-.309071-.577627-.430613.04658-.381421.03184-.74634-.03874-1.081748.836026-.344981 1.610075-.656412 2.296604-.919337zm26.874833 22.63426c.09679.828883.218768 1.578266.377964 2.244949.337211 1.412134.877898 2.504859 1.606233 3.34756.451232 1.682852 1.203213 2.898228 2.240481 3.754331v.07152l.424156.285586c.311288.209743.644799.379711.991851.511569-.282441.063-.563259.165014-.824969.317869-.489745.286046-.914153.684229-1.483556 1.263529-1.669135 1.698234-3.095309 4.071325-4.154151 6.615154-.231892-.427536-.517812-.850844-.839869-1.261543-.124752-.497788-.291203-.978363-.50561-1.435875-.489404-1.044325-1.324494-2.080507-2.258856-2.977538-.934367-.897031-1.932214-1.645638-2.95519-1.990656-.941904-.31766-1.904468-.452325-2.82655-.433095-1.382715.02883-2.677123.392886-3.691751 1.073802-.541206.3632-1.007189.841069-1.325613 1.401106-.288808-.646574-.71375-1.190135-1.225781-1.600273-.0032-.50165-.08429-.942057-.249329-1.340512-.651914-1.573861-2.111263-2.561025-3.650032-2.581195-.290512-.0038-.584162.03102-.872649.101321.663789-1.020026 1.342925-2.332561 1.939995-3.784131.403732-.981521.641798-1.412547.676463-1.448293.01734-.01788-.0253.000509.06357-.02632.08888-.02695.29941-.06502.618357-.112248.126451-.01872.26165-.0449.396342-.07103-.0023.153363-.0079.313966-.0079.460414 0 1.049705.0069 1.693042.137576 2.281705.130657.588518.457355 1.078344.805104 1.44829.185122.196916.388278.372062.599977.526968.0166.410577.04944.755262.120691 1.076284.130656.588516.457355 1.078344.805103 1.44829.254891.271127.543518.502147.842353.69385.298835.191695.570926.353643.989865.424652.713104.12089 1.322116-.02149 1.95986-.252309.544856-.197218 1.04846-.597339 1.450775-1.14979.402315-.552457.743376-1.259573 1.106085-2.221607.07825-.207551.163588-.476247.250321-.75941.107101.08315.218566.158469.335252.225489.01218.257123.0293.50206.05563.725634.06333.537877.05518.941131.484751 1.458721.370716.446682.77711.804883 1.279918 1.014699.502816.209811 1.112249.220415 1.621132.01739 1.017779-.4061 1.641254-1.347264 2.25836-2.651725.261787-.553369.682536-1.686239 1.238199-3.242264.364568-1.020888.776638-2.217027 1.195488-3.450864zm-27.508087 6.122455c.07225.04687.147481.08913.224495.128638.02016.909489.210874 1.694728.672987 2.330875.604816.83258 1.688004 1.16057 2.775396 1.002778-.42538.579907-.888709 1.243002-1.343495 1.945953-.461305.713031-.971248 1.443586-1.486534 2.159025-.211228-.195108-.43395-.381191-.691861-.52349.01063-.05439.02763-.131053.03675-.18029.0402-.216955.074-.302889.074-.577629 0-.842127-.449818-1.310694-.908409-1.738843-.249985-.233389-.517175-.453792-.835896-.608421.17675-.16621.336768-.355785.472829-.573655.149294-.23904.193986-.39519.275157-.628783.08117-.233593.166828-.511344.256282-.825468.157792-.554086.324335-1.224461.478293-1.91069zm-21.270901 2.604044c.217992.611321.514599 1.166068.901458 1.657885.115155.146398.232673.286584.355118.419188.206361 1.009789.58773 1.89128 1.170654 2.632355.255691.325055.522162.619005.834902.865199-.754098-.107427-1.576722-.141709-2.453057-.133604-.914224.0085-1.878608.07711-2.847409.193701.388014-.288457.79558-.698884 1.021153-1.284389.263452-.68381.43501-1.574698.78921-3.312793.06957-.341368.146815-.688138.227971-1.037542z" font-variant-ligatures="normal" font-variant-position="normal" font-variant-caps="normal" font-variant-numeric="normal" font-variant-alternates="normal" font-variant-east-asian="normal" font-feature-settings="normal" font-variation-settings="normal" text-indent="0" text-align="start" text-decoration-line="none" text-decoration-style="solid" text-decoration-color="#000000" text-transform="none" text-orientation="mixed" white-space="normal" shape-padding="0" shape-margin="0" inline-size="0" isolation="auto" mix-blend-mode="normal" solid-color="#000000" solid-opacity="1" vector-effect="none"></path><path id="path2884" d="m94.69251 82.314316c-.292205.18058 1.082962-.669315 0 0zm-54.530616-6.657147c-1.395034-.473584-3.620328-2.601475-4.354937-4.164309-.891845-1.897298-.713146-4.202315.400016-5.15979 1.180596-1.015502 2.371345-.879321 4.19255.479459 2.02209 1.508695 3.557558 1.580638 5.5512.26015 1.378569-.913128 1.689404-1.408949.883341-1.408949-1.610606 0-3.275325-2.350962-3.275325-4.625575 0-3.98007 3.356209-10.308937 5.466837-10.308937.675833 0 1.713213.968451 1.713213 1.599371 0 .247808-.329258 1.749468-.731672 3.337013-.402439 1.58757-.673618 2.94452-.602654 3.01551.21619.216164 3.16754-3.613551 5.169788-6.708374 1.039364-1.606535 2.181205-3.125099 2.537442-3.374633 1.435774-1.00566 3.502158-.257342 4.245606 1.537504.452454 1.092367.133528 2.549089-1.639106 7.486452-4.449221 12.39269-9.404647 17.967055-16.230985 18.258384-1.303327.05563-2.799731-.04484-3.325314-.223276zm22.352166-1.817701c-2.199603-.991178-3.446422-3.171945-3.446422-6.027902 0-2.7777 1.922962-8.086015 4.138077-11.423285.567352-.854739 1.031556-1.773303 1.031556-2.041235 0-2.433419 3.69508-3.891197 7.020445-2.769687 1.541008.519734 3.832937 2.720213 4.650647 4.465095 1.95999 4.182319-.279501 11.205522-4.847228 15.201285-2.855956 2.498276-6.384913 3.570028-8.547075 2.595729zm4.145215-7.610499c2.484516-2.656154 3.552997-6.205956 2.257838-7.501115l-.612033-.612059-1.138982 2.266161c-1.677319 3.337297-2.819779 7.292191-2.106504 7.292191.136336 0 .856207-.65035 1.599681-1.445178zm15.240915 7.479702c-2.505929-.565394-4.244807-2.720702-4.62707-5.735181-.576396-4.545593 2.132195-11.96304 5.690398-15.583059 1.101077-1.120222 1.535699-1.374008 2.353126-1.374008 2.264795 0 2.432852 2.047472.630122 7.676541-1.310104 4.090768-1.801699 6.109148-1.487926 6.109148.432432 0 3.01216-4.472129 5.11802-8.872392 1.255451-2.623352 2.552207-5.060481 2.881673-5.415894 1.375038-1.483289 3.662303-.284011 4.124239 2.162472.509916 2.700604-.946367 7.741861-3.544313 12.269416-3.733551 6.506716-7.612534 9.558456-11.138269 8.762957zm-60.168653-11.793488c-1.936645-.827683-2.649171-2.792878-1.448064-3.993985 2.411645-2.411645 12.101154-3.808122 14.935749-2.152628 1.88949 1.103499 1.780776 3.247933-.221602 4.372484-1.895648 1.064668-5.40855 1.81899-9.1018 1.954502-2.09813.07697-3.727238.0062-4.164283-.180373zm78.383873-2.547802c-.636766-.63677-.839532-1.106231-.839532-1.943731 0-2.301359 2.350492-4.39498 6.448332-5.743606 1.97665-.650504 2.83116-.764037 5.90135-.783955 3.28068-.02113 3.71376.0386 5.02603.694747 2.88896 1.444482 3.16468 4.053431.55055 5.209779-.66803.295504-3.00379.916401-5.1906 1.37978-2.18677.463379-5.07453 1.107982-6.4172 1.432474-3.44305.832115-4.44629.787176-5.47893-.245488zm-77.401791-8.892516c-1.789048-1.090951-2.565066-4.50993-1.852461-8.161307.844225-4.32564 4.201981-12.15537 7.927414-18.485448.883419-1.501017 1.563221-2.76778 1.510706-2.815012-.05247-.04726-.87087.02525-1.818629.160893-5.286051.757053-9.872589-2.594132-7.986294-5.835237.729637-1.253673 1.909305-1.623619 4.048947-1.269726 1.448605.239561 2.000497.177487 4.307782-.484329 1.45546-.417487 5.263196-1.937417 8.461579-3.377571 10.670973-4.8048918 14.767641-6.2917877 17.335128-6.2917877 4.00138 0 7.288224 2.4335733 7.290801 5.3980889 0 .9346698-.173391 1.4080978-.718712 1.9534448-.689748.689748-.819025.711728-3.097142.526897-3.087324-.250513-5.228743.321683-12.041553 3.217553l-5.088414 2.16291-1.973878 3.207222c-6.171557 10.027709-10.07605 18.839108-11.54746 26.059357-.707734 3.472911-.747312 3.575671-1.589631 4.127589-.913463.59853-2.090245.56377-3.168183-.09354zm10.330118.260073c-.333587-.134764-.882438-.595799-1.219633-1.02447-2.374386-3.018576-1.076856-9.490325 3.970355-19.80336 2.397679-4.89915 4.817879-8.60147 7.175593-10.976886 2.535845-2.554887 4.438527-2.920968 5.641258-1.08541.679183 1.036554.310293 2.105293-2.164224 6.270426l-2.008821 3.381384 1.350354-.08717 1.350405-.08717 1.547862-2.87201c2.010417-3.730304 4.799223-7.761187 6.095413-8.810291.564697-.457041 1.495399-.907021 2.068291-.99999.901429-.146258 1.164104-.04651 1.951924.741334 1.270989 1.270989 1.0842 2.017813-1.861815 7.443782-4.066417 7.489469-6.661708 13.954698-7.904585 19.691322-.330495 1.52529-.757491 3.024039-.948944 3.330597-.76968 1.232441-3.081784 1.42879-4.033203.342503-1.857898-2.121218-1.962669-5.474928-.323693-10.360343.391101-1.165755.661481-2.169172.600902-2.229752-.06064-.06063-.798462-.01134-1.639647.109873l-1.529413.220108-.827399 2.009669c-1.359063 3.301093-2.717301 7.596404-3.223738 10.194916-.261696 1.342675-.615949 2.801767-.787226 3.242446-.552305 1.421007-1.822932 1.947234-3.280016 1.358495zm31.301037-4.528045c-.335805-.05692-.91738-.429881-1.292402-.82879-.602938-.641305-.681916-.997105-.681916-3.072121 0-1.290752.108843-3.023807.241882-3.851232l.241881-1.504418-1.103474.386566c-.606931.212609-1.685075.472656-2.395901.577891-1.282713.189933-1.298534.206244-2.106942 2.171568-1.170573 2.845855-2.682876 5.151854-3.515712 5.360881-1.95865.491569-2.902106-.806914-2.576558-3.54622.24067-2.025028 2.489876-8.867806 4.319971-13.142734 4.299795-10.04384 9.151275-17.508726 12.51305-19.2535816 2.217795-1.1510921 4.712102-.3607213 5.772132 1.8289876.537642 1.110662.589796 1.593522.450495 4.170724-.178672 3.304829-.725204 5.958716-3.734865 18.136296-2.35073 9.511378-3.228659 11.839897-4.659536 12.357826-.473893.17151-1.136353.265278-1.472105.208357zm-.296303-14.431399c.273292-.256465 3.10714-11.251853 2.942433-11.416585-.250358-.250332-6.200055 11.114743-6.200055 11.843272 0 .257856 2.938336-.127035 3.257622-.426687zm18.557417 13.999508c-2.275102-1.533252-2.989844-4.526602-2.980929-12.483803.0034-3.193513-.02914-5.770715-.07274-5.727091-.0436.0436-1.117234 3.215621-2.385878 7.04897-1.268618 3.833324-2.640359 7.675201-3.048286 8.537489-1.145655 2.421721-2.326483 2.892934-3.551296 1.417143-.499274-.601571-.436659-4.172914.131105-7.480578 1.409542-8.211657 6.952729-22.371105 10.004957-25.556604 1.108627-1.157044 1.380166-1.296756 2.52023-1.296756 2.43999 0 3.415785 1.369962 3.4163 4.796363.00018 1.232054-.199957 5.021289-.444724 8.42053-.244793 3.399216-.406484 7.124624-.359355 8.278653l.08573 2.098208 1.839784-6.842649c3.465751-12.890081 5.52067-18.3491625 7.54964-20.0564234 1.098654-.9244657 2.779224-.9763101 3.561966-.1098732.926169 1.0252171.641718 2.9971116-1.30047 9.0156336-.968528 3.00126-2.673083 8.817094-3.787972 12.92407-3.448431 12.703395-4.603337 15.706254-6.541192 17.007571-1.318763.885607-3.330494.88955-4.636862.0093zm12.754004-.192175c-.585879-.357242-1.079278-1.017513-1.412634-1.890391-.459128-1.20219-.476315-1.614446-.165712-3.973319.954228-7.247097 5.547876-20.888229 9.863084-29.289021 1.8487-3.5990441 3.18946-5.0787509 4.60184-5.0787509 2.83534 0 3.11628 2.4433135.98844 8.5972449-.73372 2.122119-1.22983 3.737648-1.10244 3.590025.1274-.147623 1.38507-1.690049 2.79478-3.427612 4.69601-5.7880046 8.80504-9.3340701 10.816-9.3340701 1.94958 0 3.70244 1.9886434 3.11494 3.5339289-.14416.3791708-1.66723 2.0977952-3.38459 3.8191512-1.71737 1.721381-5.61629 6.037719-8.66425 9.591824l-5.54172 6.46206.17219 1.956125c.31243 3.549312 1.56785 6.20374 3.49836 7.396859 2.93465 1.813707 6.31949-.473352 6.89303-4.657424.11265-.822039-.008-2.173784-.32422-3.638237-.46744-2.163502-.46981-2.381547-.0332-3.047873 1.53417-2.341505 4.59519-1.241717 6.24394 2.243356.69173 1.462237.83152 2.1273.8317 3.957833 0 5.194344-2.60714 9.411399-7.12777 11.526871-3.59456 1.682085-7.93971 1.001459-10.96364-1.717336-1.72904-1.55451-2.93798-3.238838-3.70243-5.158244-.66393-1.667012-.6529-1.690202-1.59125 3.344125-.68416 3.670187-.77664 3.927091-1.732183 4.810638-1.197242 1.107055-2.658625 1.244216-4.072265.382237z" fill="#b4ff1a" stroke-width=".265"></path><path id="path2987" d="m56.913618 128.2388c-14.22178-1.34526-26.415826-7.28189-37.362951-18.19008-5.76466-5.74415-8.167724-9.13538-9.7774026-13.798001-.6962932-2.016833-.7950091-2.736318-.8077898-5.887648-.016749-4.092134.4930896-6.206652 2.4196844-10.037888 2.669502-5.308727 8.209803-10.61833 11.167464-10.702409 1.523898-.04332 2.007994.344049 3.237679 2.590498 1.777889 3.248011 3.333172 5.467378 5.008095 7.146423 6.016409 6.03138 18.70102 9.688891 31.859266 9.18637 18.06322-.689825 29.691821-6.873544 39.176377-20.832674 3.82876-5.635099 4.74253-6.28076 7.43884-5.256238 3.28034 1.246459 8.44732 5.408628 10.93307 8.807019 1.7831 2.437748 3.45065 6.017363 3.80622 8.170532.64385 3.898593-.45632 9.831361-2.74552 14.805597-3.8301 8.322459-12.133 17.383029-21.703562 23.684199-11.574056 7.62021-28.31908 11.66981-42.64947 10.3143zm4.470505-4.85762c.772307-.41331.693923-.92835-.247163-1.62413-1.109786-.82049-1.5105-2.27013-1.691827-6.1202-.19171-4.07012.409036-9.63385 1.81126-16.774912.555473-2.828775.934902-5.442156.843194-5.80754-.251337-1.001538-1.133724-1.362001-2.095966-.856259-1.9486 1.024212-4.37635 4.315693-6.582807 8.924911-.683204 1.42722-1.179282 2.27183-1.102365 1.87691.07692-.39489.463766-2.24691.859711-4.115609 1.141455-5.387498.918127-7.08525-.93199-7.08525-.996589 0-2.716451 1.863335-4.340147 4.70226-4.028049 7.042759-8.750433 22.353609-7.191723 23.316929.597964.36961 1.083453-.60633 2.248201-4.51951 1.82587-6.1344 3.39146-10.42234 5.172004-14.16563 1.609859-3.384453 3.121002-6.041021 3.32199-5.840086.05601.05601-.336732 2.103797-.872802 4.550596-1.331053 6.07572-2.216507 11.71873-2.010803 12.81512.218148 1.16297.813948 1.65528 1.726123 1.42637.915138-.22969 1.287944-.975 3.069596-6.13695.803023-2.32664 2.04291-5.39341 2.755333-6.81505 1.308816-2.611841 2.906616-5.15884 3.109176-4.956307.06055.06058-.201452 1.717463-.582195 3.682012-1.219685 6.293005-1.665311 10.825865-1.531912 15.583085.136234 4.86094.509814 6.26378 2.002275 7.51962.930702.78313 1.415597.87306 2.262837.41962zm10.310948-1.03122c1.915051-1.6114 2.755385-4.4501 3.226906-10.90064.363247-4.96923-.008-14.572653-.656533-16.976878-.376259-1.395137-1.179385-2.249721-1.866453-1.986041-.399605.153318-.448048.469023-.302848 1.973415.399503 4.139161.541481 17.052224.214362 19.496444-.430217 3.21469-1.034597 5.21272-1.870886 6.18495-.659651.76685-.684131.77157-1.439998.27629-1.149495-.75319-1.800876-2.03031-2.505259-4.91214-.822039-3.36297-1.032046-11.60853-.446477-17.531426.393086-3.976287.375126-4.738828-.111496-4.738828-.547459 0-1.191263 1.52851-1.774823 4.213809-.52566 2.418888-.615486 3.788025-.627778 9.571875-.01289 6.12735.04672 6.99115.648314 9.37447 1.13375 4.49131 2.970648 6.70882 5.557282 6.70882.724586 0 1.3427-.23832 1.955687-.75412zm13.30981-2.79462c1.348937-.56359 3.510868-3.11018 4.641474-5.46728 1.749855-3.64808 3.260096-9.86911 2.508635-10.33357-.517492-.31977-1.362361 1.10193-3.087427 5.19535-.91756 2.1772-1.860038 4.28168-2.094394 4.67659-1.887841 3.18084-2.829365 3.94322-4.074482 3.29934-1.484217-.76752-2.31141-3.35513-2.504461-7.83426-.250178-5.80579.917998-12.105357 3.073616-16.575218 1.033978-2.144022 2.837275-4.450819 3.479301-4.450819.516951 0 .840669 1.454249.840669 3.776248 0 2.563442.335418 2.850752 1.228319 1.052145.78635-1.584118.937039-4.458473.298286-5.689676-1.140785-2.19865-3.229356-2.093002-5.541048.280326-3.548076 3.642668-6.042796 12.118394-6.033365 20.498234.0046 4.13532.429573 6.54238 1.542271 8.73662.801812 1.58115 1.394673 2.17417 2.770073 2.77072 1.250633.54246 1.782296.55421 2.952533.0653zm-54.51397-6.91887c4.889231-2.86526 9.810102-17.598171 7.446385-22.294297-.204569-.406407-.541996-.879604-.749864-1.051552-.51105-.422743-1.964835-.111857-2.17095.464256-.0914.255512-.766973 1.110817-1.501222 1.900621-1.790851 1.926311-3.961853 5.192618-5.538806 8.333204-2.963562 5.902158-3.524472 10.640388-1.499342 12.665548.910705.91067 2.441124.90387 4.013799-.0178zm-2.553933-2.04915c-.309444-.80638-.185759-3.11366.261051-4.8704.6092-2.39507 3.532693-8.12847 5.667851-11.115485.987133-1.380991 1.891731-2.511829 2.010211-2.513015.118479 0 .214412.611776.213227 1.362078-.0054 3.40674-1.298199 8.180042-3.325262 12.277892-1.318608 2.66556-1.964577 3.55506-3.389295 4.66701-.982031.76644-1.205875.79633-1.437783.19192zm72.362242-2.83589c.52501-.80126.34827-1.30505-.45785-1.30505-.416404 0-.654232-.36513-.982203-1.50782-.531766-1.85264-1.01378-5.983942-1.016924-8.715851l-.0028-2.0384 2.899787-1.930693c1.59489-1.06191 2.96913-1.861376 3.05388-1.776653.0848.08472.33464 1.281863.55537 2.660329.658 4.10901 2.18633 6.797165 3.97633 6.993938 2.20971.24291 3.43447-.842691 5.31917-4.714584 4.10144-8.425993 4.00488-16.599076-.19612-16.599076-.87708 0-1.2645.196736-2.02786 1.0297-.62164.678333-.94366 1.319381-.94366 1.87859 0 1.239708.45992 1.329971 1.6139.316788 1.23172-1.081468 1.71543-.84992 1.98146.948481.48845 3.301788-2.10818 11.6101-4.38767 14.039164-.85597.912145-1.03524.848375-1.79365-.638239-1.59951-3.135252-2.12079-14.484944-1.02633-22.345491.40092-2.879509.45085-3.9047.2023-4.153255-.58137-.58137-1.42294.654524-2.01034 2.952302-.79091 3.093843-1.18359 6.771014-1.18451 11.092402v3.770579l-.85678.354872c-.47121.195216-1.85784 1.042894-3.081375 1.88377-1.22352.840875-2.267267 1.4862-2.319472 1.434046-.05215-.05221-.28177-1.562704-.510225-3.356725-.589744-4.630728-1.328142-6.379553-2.411104-5.710238-.292205.18058-.303956.805625-.05767 3.060835.170221 1.558659.392467 3.937167.493888 5.285613l.184394 2.451662-2.052574 1.364886c-2.231993 1.484165-2.622346 2.018122-1.959809 2.680686.384453.384405.623191.335388 2.171207-.446065l1.739265-.87798.16182 1.931621c.388783 4.639566.771638 7.302316 1.206003 8.387936.861954 2.15417 2.808341 2.9901 3.720512 1.59792zm-76.473392-4.73768c.563075-.49438 1.122078-1.36237 1.341-2.08221.6101-2.006293.442996-5.780327-.412-9.306344-1.59883-6.593425-1.611894-8.174656-.08029-9.706284l.863215-.863191.668258.77692c.828663.963349 1.222932 2.320686 1.45966 5.024948.149427 1.707132.268447 2.07865.6428 2.006938.995456-.190783 1.459376-3.381513.867828-5.968687-1.038127-4.540181-5.239102-5.251755-7.194402-1.218604-.923204 1.904229-.858914 5.219313.176791 9.116644 1.445977 5.441198 1.233884 10.48287-.441013 10.48287-2.058963 0-4.271425-6.229663-3.46799-9.764855.199571-.878059.199854-1.384495 0-1.579608-.429649-.42143-1.601871 1.054128-2.000058 2.517576-.432098 1.58806-.155405 5.186537.5337 6.940794 1.540054 3.920753 4.795074 5.595523 7.041549 3.623093z" fill="#ffdb00" stroke-width=".265"></path><path id="path4861" d="m54.647905 3.9155257c-2.567489 0-6.664312 1.4869276-17.335286 6.2918193-3.198383 1.440154-7.006311 2.959872-8.461773 3.377359-2.307284.661816-2.859015.723814-4.307621.484253-2.139641-.353893-3.31922.01631-4.048856 1.269986-1.886295 3.241106 2.700408 6.591937 7.986458 5.834883.94776-.135644 1.765843-.208179 1.818312-.160921.05251.04723-.626957 1.314111-1.510376 2.815127-.832161 1.413971-1.643752 2.90407-2.415307 4.411923 3.049913-.733992 6.155295-1.464386 9.322997-2.182369 1.022582-1.845238 2.128937-3.737056 3.32223-5.675949l1.974264-3.207497 5.088389-2.162999c6.812807-2.895871 8.95395-3.467944 12.041274-3.21743 2.278117.184831 2.407489.162781 3.097235-.526968.545321-.545347.718684-1.018735.718684-1.9534043-.0026-2.9645156-3.289245-5.397813-7.290624-5.397813zm67.095195.8612264c-2.01095 0-6.11999 3.5464175-10.81599 9.3344219-1.09184 1.345756-1.70955 2.10042-2.16449 2.654703 2.76828-.05402 5.58738-.07921 8.46823-.06854 1.73001-1.92343 3.3116-3.634249 4.24256-4.567381 1.71736-1.721355 3.24064-3.439727 3.38481-3.818898.5875-1.5452853-1.16554-3.5343059-3.11512-3.5343059zm-13.49652.5746474c-1.41238 0-2.75345 1.4794104-4.60215 5.0784545-1.00611 1.958691-2.02607 4.20835-3.0128 6.589325 2.51188-.107317 5.07017-.189166 7.67703-.243368.19394-.649797.51472-1.636676.92629-2.827048 2.12785-6.1539311 1.84697-8.5973635-.98837-8.5973635zm-11.036512.8502996c-.655316.020214-1.350437.2643958-1.899763.7266287-1.443039 1.214234-2.901847 4.3440092-4.869357 10.6774192 2.199097-.160332 4.436251-.299884 6.710016-.420183.141188-.45332.300333-.976969.421177-1.351441 1.942187-6.0185215 2.226454-7.9903421 1.300283-9.0155592-.391371-.4332185-1.00704-.6370794-1.662356-.6168647zm-27.113233 2.7758906c-.694859-.00293-1.415305.167251-2.108366.5269673-2.474753 1.284466-5.756489 5.675788-9.031452 11.906678 4.759251-.802551 9.694519-1.532981 14.828091-2.16896.250119-1.465314.362688-2.564213.426145-3.73794.1393-2.577202.08716-3.059879-.450481-4.170541-.72877-1.5054249-2.135249-2.3497554-3.663937-2.3562043zm13.126004 1.2560793c-1.140063 0-1.411478.139762-2.520106 1.296806-1.151385 1.201659-2.65739 3.966499-4.162098 7.383005 3.247012-.374727 6.575517-.709746 9.992014-.999301.06346-1.269441.106863-2.345665.106784-2.884165-.000509-3.4264-.976606-4.796345-3.416594-4.796345zm-25.797554 4.349839c-.1637-.0011-.34929.02006-.574649.05662-.572892.09297-1.503437.542757-2.068135.999798-1.146574.92801-3.459449 4.189216-5.37 7.511642 2.664724-.520227 5.382649-1.02185 8.157315-1.500938 2.308708-4.328446 2.401508-5.100698 1.232737-6.26947-.590865-.590882-.886171-.79437-1.377268-.797652zm-10.621792 2.113332c-1.04525-.029-2.327643.716562-3.833302 2.233526-1.589772 1.601708-3.208099 3.808993-4.828628 6.577406 2.795823-.620261 5.643802-1.22759 8.552662-1.815827 2.233132-3.792608 2.571075-4.849291 1.917147-5.8473-.488608-.745695-1.092709-1.127962-1.807879-1.147805z" fill="#fff"></path></g></g></svg>