<svg width="48" height="48" viewBox="0 0 48 48" fill="none" xmlns="http://www.w3.org/2000/svg">
<rect width="48" height="48" rx="24" fill="#F2F2F2"/>
<path d="M27.9992 14H24.645V27.6232C24.645 29.2464 23.355 30.5797 21.7496 30.5797C20.1442 30.5797 18.8541 29.2464 18.8541 27.6232C18.8541 26.029 20.1155 24.7246 21.6636 24.6667V21.2464C18.2521 21.3043 15.5 24.1159 15.5 27.6232C15.5 31.1594 18.3094 34 21.7783 34C25.247 34 28.0565 31.1304 28.0565 27.6232V20.6377C29.3179 21.5652 30.8659 22.1159 32.5 22.1449V18.7246C29.9773 18.6377 27.9992 16.5507 27.9992 14Z" fill="#040404"/>
</svg>
