<svg width="111" height="7" viewBox="0 0 111 7" fill="none" xmlns="http://www.w3.org/2000/svg">
<path d="M8.73631 5.68523C8.80555 5.67241 9.07214 5.64756 9.18987 5.63107C9.0629 5.68751 8.49519 5.7303 8.73631 5.68523ZM20.5604 1.56188C20.4618 1.57934 20.3637 1.59681 20.266 1.6143C20.5446 1.59932 20.9314 1.56287 21.1858 1.55358C21.2281 1.55204 21.1207 1.58887 21.2207 1.58277C21.321 1.57665 21.2986 1.53881 21.4447 1.5239C21.6096 1.507 22.3653 1.48043 22.6244 1.46198C23.6064 1.39102 24.5748 1.30526 25.5646 1.26066C24.545 1.35328 25.5831 1.31808 25.8543 1.28915C25.916 1.28274 25.8959 1.21443 26.8232 1.172C26.8536 1.17063 26.8852 1.16929 26.9178 1.16799C27.5577 1.1428 26.9666 1.28101 28.0442 1.1678C27.2052 1.14172 28.0337 1.09967 28.6702 1.06273C28.7802 1.05613 29.6877 1.01866 30.081 0.995404C30.2169 0.987269 30.4229 0.938349 30.605 0.928147C30.7303 0.921161 30.8272 0.937263 31.0091 0.927134C31.8658 0.879774 32.7105 0.838057 33.5779 0.805791C33.0759 0.927221 33.9757 0.829755 34.0138 0.832911C34.2196 0.850394 33.2943 0.899713 33.6627 0.899832C34.1702 0.87382 34.6855 0.848085 35.2006 0.822966C34.7818 0.828792 35.7505 0.716397 35.9335 0.741212C35.8511 0.656625 38.2802 0.721836 38.6423 0.680154C38.7193 0.671203 38.2138 0.646823 39.3808 0.623029C39.5075 0.620546 39.4606 0.648559 39.527 0.643669C39.5675 0.640707 39.8029 0.548537 40.059 0.585479C40.1534 0.599059 39.5572 0.674814 40.8676 0.606446C40.3434 0.539305 42.6827 0.497977 43.1134 0.506432C43.0273 0.497776 42.9413 0.48913 42.8554 0.480497C43.2799 0.497571 43.3561 0.466338 43.4518 0.464862C43.8371 0.458947 44.3728 0.471546 44.7298 0.458171C45.1498 0.442526 45.1496 0.389641 45.6416 0.395864C45.5246 0.387594 45.4077 0.379347 45.2909 0.371121C45.6298 0.363958 45.971 0.356939 46.3083 0.350239C45.5276 0.442376 46.477 0.348739 46.5401 0.345566C46.6402 0.34023 46.4971 0.372859 46.6645 0.364635C46.6819 0.363573 46.656 0.337286 46.9144 0.327144C47.4546 0.306144 47.3705 0.342431 47.5975 0.335957C47.6182 0.335244 47.5448 0.312832 47.9356 0.296793C49.1788 0.246293 47.9296 0.31546 47.8823 0.320173C47.8193 0.326344 48.25 0.416197 47.1909 0.40862C47.5467 0.410455 47.5841 0.45446 47.6237 0.454506C47.6589 0.454431 48.2727 0.432013 48.3067 0.429645C48.6086 0.406622 48.3419 0.38277 48.4006 0.375756C48.4483 0.370019 49.1919 0.391276 49.3625 0.29482C49.7186 0.37135 49.1609 0.376949 48.5658 0.405233C48.4794 0.424873 49.1332 0.425378 49.1678 0.424541C50.0087 0.403753 49.5414 0.34517 49.7243 0.295913C49.8203 0.270147 50.1645 0.309757 49.8463 0.254515C50.6104 0.22974 50.1478 0.277149 50.1973 0.281348C50.2719 0.287494 50.5392 0.263266 50.5728 0.2649C50.622 0.267315 50.4515 0.293002 50.6456 0.296189C50.6779 0.296559 50.9896 0.251975 50.5862 0.243343C51.1247 0.236309 51.0789 0.205536 51.2628 0.265735C51.6303 0.135883 51.533 0.331705 51.679 0.335328C52.0672 0.344891 51.9527 0.251851 51.9731 0.246742C52.1138 0.213695 53.1879 0.224337 53.4536 0.205551C53.35 0.276318 52.6026 0.223334 52.4361 0.240252C51.8805 0.296219 53.2207 0.258465 52.8185 0.353244C52.9873 0.326051 53.1562 0.298909 53.3251 0.271819C53.6367 0.321331 53.1966 0.35399 54.032 0.317656C54.1678 0.267047 53.4412 0.336568 53.5865 0.295992C53.6721 0.272101 54.1567 0.258107 54.166 0.246269C54.1753 0.231989 53.7375 0.257004 53.8062 0.234053C53.9561 0.184143 55.5547 0.199561 54.3389 0.247256C54.6781 0.240182 54.8546 0.329958 55.1481 0.295826C55.3381 0.273803 54.2656 0.163807 55.8716 0.159826C55.9063 0.203072 55.2299 0.183664 55.2124 0.187379C55.1878 0.19267 55.3119 0.289541 55.3331 0.294064C55.4078 0.308477 57.0475 0.22868 57.394 0.273804C57.2561 0.218372 58.6337 0.245937 58.7826 0.226893C58.8224 0.22156 58.673 0.188446 58.7156 0.184181C58.9801 0.158556 59.7032 0.212249 60.0364 0.21019C60.4098 0.207836 60.362 0.178147 60.3829 0.177961C60.5471 0.177876 60.4162 0.199815 60.5165 0.19868C60.6682 0.196759 61.7135 0.190781 61.7652 0.186214C61.7805 0.184743 61.61 0.151683 61.8372 0.143087C61.877 0.141652 61.8503 0.182642 62.5256 0.159459C63.3385 0.131825 61.9603 0.112949 62.2979 0.0673599C62.8212 0.124266 62.8033 0.063951 62.9449 0.0676334C62.9939 0.0690059 63.3588 0.117846 63.753 0.112172C63.4701 0.122278 63.1865 0.132563 62.9025 0.143024C63.1823 0.149935 63.7219 0.135214 63.9528 0.144114C64.0654 0.148431 63.973 0.191261 64.2173 0.188757C64.269 0.18804 64.4747 0.0836486 63.8342 0.13365C63.7828 0.0971377 64.088 0.119286 64.2291 0.108122C64.2504 0.106385 64.3344 0.0444056 64.5148 0.0817171C64.5575 0.0910452 64.0898 0.272216 65.3001 0.137183C65.339 0.132846 65.2035 0.110905 65.2416 0.106099C65.2672 0.102824 65.5771 0.110774 65.6118 0.107488C65.647 0.103946 65.4966 0.0799336 65.5385 0.0749629C65.753 0.049348 66.0345 0.145768 65.5925 0.139782C65.7404 0.151302 65.888 0.162872 66.0355 0.174495C65.8775 0.101606 66.2672 0.153208 66.4704 0.150569C67.7736 0.134118 66.901 0.0877898 67.1252 0.0627787C67.4878 0.0228848 67.2115 0.148447 67.7484 0.110636C67.7974 0.107241 67.1515 0.0534188 68.414 0.0842904C68.2281 0.0861527 68.0417 0.0881027 67.855 0.0901395C67.9631 0.161008 68.5276 0.0857252 68.571 0.0848575C69.0704 0.0759941 68.734 0.100708 69.4725 0.0661436C69.5384 0.0630593 69.6817 0.0810099 69.822 0.0727886C70.4042 0.038881 69.0536 0.0483413 69.0147 0.0199166C68.9993 0.0053877 70.4514 0.0138781 70.505 0.0212915C70.7184 0.0518438 69.841 0.0313772 70.0088 0.0689159C70.0716 0.0813105 72.1485 0.0665119 72.5666 0.0857244C73.0454 0.106657 73.2608 0.205222 73.2657 0.0971893C73.4013 0.204646 73.5225 0.133602 73.5843 0.135013C74.3314 0.153343 74.3217 0.154403 74.9678 0.153083C75.1094 0.152871 75.228 0.186802 75.278 0.182109C75.307 0.179262 75.2534 0.144011 75.3955 0.135522C75.4792 0.13062 75.7401 0.137418 76.0172 0.148777C76.4027 0.164294 76.8172 0.188442 76.8675 0.200375C76.9557 0.220992 76.3659 0.199427 76.471 0.232673C76.9016 0.243517 77.2977 0.243457 77.7351 0.255982C77.9145 0.261257 77.8218 0.2812 77.8992 0.283296C77.9329 0.284164 78.5478 0.278722 78.5213 0.270137C78.464 0.248811 76.5581 0.222583 77.0607 0.194537C77.1573 0.188951 77.4935 0.246207 77.4417 0.183781C79.1418 0.232285 80.8418 0.292343 82.5404 0.365615C81.5664 0.377392 80.4593 0.302673 79.4444 0.280889C79.3047 0.277716 78.8273 0.260033 78.8844 0.292504C79.7596 0.321558 80.838 0.335922 81.6706 0.383276C81.6975 0.384815 81.5978 0.409481 81.6985 0.417155C81.8875 0.431366 82.4968 0.407089 82.5971 0.422385C82.6146 0.425669 82.2688 0.450462 82.3728 0.477428C82.6401 0.546642 82.7103 0.416332 82.9461 0.426398C83.13 0.433754 84.3307 0.544202 84.6366 0.516975C84.9606 0.486876 83.7406 0.455437 83.8357 0.424271C84.6596 0.420803 85.4875 0.494387 86.2595 0.526141C86.2731 0.526664 86.1568 0.49349 86.3284 0.497661C86.6284 0.505069 86.7085 0.548351 86.8543 0.561733C87.0133 0.576041 87.5675 0.59833 87.6416 0.616613C87.6507 0.618957 87.536 0.652081 87.5192 0.652322C87.2774 0.656073 87.1934 0.601328 87.1715 0.599568C87.0887 0.593519 87.0061 0.608828 86.9303 0.60395C86.8053 0.595903 86.7373 0.574641 86.5714 0.565102C86.4568 0.55847 86.5658 0.598118 86.4553 0.591284C86.4147 0.588557 85.9883 0.490015 85.9436 0.568337C85.9237 0.58793 89.4775 0.803122 89.8274 0.809297C89.5267 0.781871 89.2236 0.754781 88.918 0.72804C89.5373 0.78593 90.2787 0.766551 90.3273 0.864587C92.6096 1.01109 94.9036 1.1868 97.1831 1.38866C97.5908 1.4317 97.3636 1.47296 98.0342 1.51376C97.8634 1.47925 97.6919 1.44483 97.5197 1.41051C97.8632 1.45273 99.3802 1.61592 99.6302 1.6275C99.6621 1.62886 99.7123 1.57796 100.091 1.60893C100.43 1.63672 100.481 1.68319 100.66 1.70834C100.811 1.72937 100.981 1.73502 101.026 1.74164C101.06 1.74681 101.071 1.77322 101.154 1.78574C101.415 1.82496 101.209 1.73334 101.462 1.84018C101.398 1.83705 101.334 1.83393 101.271 1.83082C101.586 1.87357 102.013 1.95324 101.547 1.92546C101.466 1.92071 101.537 1.90316 101.478 1.89732C99.1408 1.67587 101 1.90159 101.824 1.94574C102.03 2.00213 103.21 2.09965 103.249 2.11124C103.302 2.12713 103.098 2.13516 103.36 2.18724C103.414 2.19758 104.99 2.34267 104.418 2.331C104.301 2.32842 103.547 2.23923 103.365 2.22207C103.784 2.34216 104.799 2.33859 104.911 2.35356C105.365 2.41382 104.031 2.32691 105.054 2.44466C105.841 2.53567 105.108 2.40563 105.413 2.41629C105.583 2.42206 106.469 2.57479 106.453 2.49952C106.759 2.525 106.576 2.54404 106.613 2.55091C106.65 2.55734 107.254 2.60132 107.447 2.63811C107.47 2.64261 107.392 2.67221 107.416 2.67799C107.463 2.68845 108.043 2.7448 108.067 2.74419C108.082 2.7436 107.947 2.69528 108.005 2.69353C108.072 2.69156 108.629 2.76102 108.661 2.755C108.706 2.74549 108.016 2.67876 108.135 2.65447C108.451 2.69881 108.971 2.73148 109.184 2.72497C109.131 2.72778 108.824 2.69486 108.717 2.68003C108.773 2.63141 109.434 2.70549 109.203 2.72329C109.349 2.71621 109.253 2.69311 109.336 2.68036C109.358 2.67721 109.562 2.69873 109.602 2.69372C109.607 2.69242 109.399 2.64861 109.443 2.64229C109.521 2.63087 110.138 2.7041 110.189 2.71495C110.329 2.74558 109.823 2.70737 109.779 2.72555C109.772 2.72839 110.196 2.82085 110.202 2.82553C110.222 2.87074 109.749 2.78709 109.799 2.83136C109.916 2.85255 110.033 2.87374 110.15 2.89494C109.691 2.88295 108.852 2.76956 108.63 2.78952C109.306 2.85122 110.011 2.93136 109.999 3.03027C109.994 3.07195 109.7 3.06403 109.71 3.0759C109.749 3.11863 110.157 3.12234 110.172 3.126C110.184 3.12969 110.189 3.13256 110.189 3.13476C110.189 3.13476 110.189 3.13476 110.189 3.13476C110.187 3.15697 109.609 3.10891 109.579 3.11586C109.529 3.1285 109.777 3.23121 109.774 3.24758C109.765 3.24988 109.353 3.22185 109.488 3.26587C109.625 3.31036 109.984 3.35094 109.996 3.35534C110.063 3.38027 109.433 3.32622 109.413 3.33437C109.403 3.33844 109.736 3.40767 109.745 3.4179C109.753 3.42799 109.494 3.41948 109.39 3.43717C109.313 3.45028 109.53 3.49111 109.491 3.4902C109.463 3.48936 108.87 3.42309 108.84 3.42365C108.796 3.42441 108.933 3.4655 108.912 3.46967C108.882 3.47572 108.691 3.4452 108.715 3.45747C108.733 3.4666 109.466 3.63758 109.458 3.66069C109.445 3.70005 108.67 3.51993 109.383 3.76032C109.388 3.76193 109.568 3.77042 109.573 3.77196C109.679 3.81345 109.103 3.79498 109.802 3.86476C108.498 3.77121 109.634 3.90738 109.434 3.9539C109.357 3.97173 108.853 3.92657 108.85 3.93023C108.895 3.96876 109.058 3.9609 109.111 3.98319C109.14 3.99559 108.686 3.98058 108.785 4.01456C108.836 4.03207 109.314 4.08102 109.334 4.0855C109.52 4.12808 109.286 4.1255 109.326 4.14542C109.352 4.15875 109.641 4.19164 109.648 4.19433C109.66 4.19952 109.263 4.19742 109.18 4.20293C109.117 4.20726 109.348 4.25069 109.304 4.25077C109.04 4.25101 108.493 4.11487 109.016 4.2787C109.048 4.28873 109.251 4.30862 109.257 4.31055C109.378 4.35406 109.006 4.31524 108.936 4.33209C108.817 4.36116 109.355 4.39732 108.907 4.37726C109.238 4.44167 109.424 4.46118 109.815 4.49706C108.731 4.39798 108.338 4.46378 109.539 4.59451C109.157 4.55034 109.193 4.6161 109.078 4.60451C109.007 4.59721 108.46 4.47506 108.699 4.6394C108.729 4.65994 109.068 4.6757 108.959 4.69881C108.152 4.6003 108.939 4.71904 108.94 4.72375C108.92 4.80254 106.955 4.51866 106.616 4.49132C106.221 4.45892 105.866 4.48444 105.78 4.47526C105.498 4.4449 105.735 4.43801 105.674 4.41942C105.611 4.40062 104.806 4.3766 104.766 4.36904C104.612 4.33898 104.774 4.31767 104.758 4.31404C104.569 4.27003 103.492 4.18694 103.193 4.14751C103.2 4.17311 103.802 4.2376 103.422 4.23821C102.979 4.23906 102.965 4.12776 102.954 4.12176C100.945 3.91641 98.9365 3.72587 96.9242 3.55632C96.9445 3.61576 98.2607 3.68637 98.292 3.69755C98.4599 3.75651 96.2469 3.56398 95.9722 3.52324C96.1774 3.55259 96.3858 3.58242 96.5911 3.61223C96.2305 3.64898 95.459 3.49888 94.9429 3.48855C94.7783 3.48534 95.0905 3.53558 95.085 3.53695C94.8976 3.54829 94.6033 3.50553 94.8276 3.48786C94.3733 3.48636 94.442 3.45469 94.0927 3.42561C94.075 3.42418 94.2219 3.46221 93.9461 3.45286C93.8188 3.4484 93.1309 3.39851 93.0355 3.41563C92.9969 3.42281 93.3399 3.55236 93.3893 3.46561C94.1327 3.56397 93.631 3.44205 93.9201 3.46544C93.9642 3.46935 93.8583 3.5112 94.5928 3.5434C94.4465 3.62283 93.6093 3.49226 93.4646 3.49311C93.1658 3.49372 94.3874 3.63048 94.6187 3.57808C94.5081 3.64063 94.7053 3.59419 94.9766 3.61828C95.2761 3.64491 95.1442 3.65573 95.3066 3.66867C95.75 3.70453 95.5705 3.64003 95.9303 3.71438C95.5856 3.5463 96.559 3.74719 96.8397 3.80808C96.376 3.77596 95.908 3.74459 95.444 3.71468C95.47 3.72411 95.496 3.73353 95.522 3.74296C95.3997 3.73213 95.2769 3.72134 95.1538 3.71061C95.1741 3.70517 95.1944 3.69972 95.2147 3.69428C94.5794 3.6901 94.4308 3.62793 94.3787 3.62328C93.7144 3.56676 92.9488 3.51191 92.2795 3.46606C92.1801 3.4594 92.2397 3.50849 91.5139 3.42465C91.2809 3.39802 91.5042 3.37696 91.2383 3.36504C90.8993 3.43991 90.9093 3.36357 90.8106 3.35718C90.53 3.33949 90.3553 3.35279 90.3292 3.35142C89.9781 3.33353 89.4665 3.29919 89.0824 3.28094C89.0751 3.2809 89.2737 3.32192 89.0242 3.29891C88.9336 3.29053 88.1613 3.12026 87.4643 3.12605C87.6443 3.14384 87.824 3.16179 88.0025 3.17984C87.7893 3.15553 86.3178 3.11444 86.6755 3.1662C86.8971 3.19756 87.4367 3.14315 87.4917 3.22464C87.0077 3.1728 84.2946 3.08609 84.0819 3.06225C84.0526 3.05846 84.2345 3.04031 84.194 3.03542C84.161 3.03146 83.5415 3.0131 83.4601 3.00038C83.4116 2.9927 83.6853 2.98759 83.6634 2.97759C83.6455 2.97013 82.8699 2.93016 82.8227 2.96062C83.016 2.95465 83.5504 2.986 83.2687 3.00231C83.2326 3.00428 83.0457 2.97676 83.0014 2.97939C82.5926 3.00336 83.8093 3.03907 83.9962 3.04747C83.2352 3.05747 82.0535 2.96724 81.1646 2.96655C80.8101 2.92894 81.6923 2.94246 81.2911 2.90784C80.4576 2.83653 81.068 2.93767 81.0421 2.94024C80.8352 2.96047 80.1244 2.79634 80.12 2.90569C79.8167 2.88085 79.917 2.8697 79.4877 2.87265C79.544 2.88169 79.6002 2.89074 79.6563 2.89981C79.1783 2.94996 78.1696 2.7667 78.2469 2.75647C78.4502 2.72835 78.9734 2.79184 79.0205 2.79187C79.0867 2.79183 79.2785 2.68508 79.9978 2.80393C80.2975 2.73738 78.8491 2.72323 79.51 2.68987C79.062 2.68512 77.2202 2.59249 76.962 2.62134C76.9303 2.62503 77.0762 2.70178 76.6234 2.65565C76.4082 2.63373 76.9278 2.64245 76.8294 2.62376C76.753 2.60922 76.4326 2.59544 75.9767 2.58375C74.6506 2.54771 72.2013 2.54281 71.6091 2.542C71.5582 2.54172 71.5772 2.51885 71.5274 2.51872C71.3751 2.51826 70.8164 2.54914 70.54 2.53727C71.1125 2.58274 69.9973 2.58037 69.7206 2.57504C69.2943 2.56651 69.3203 2.52621 69.1355 2.51712C68.418 2.48198 67.3211 2.57805 66.7659 2.4893C66.7971 2.57828 65.8103 2.44742 65.3592 2.44858C65.009 2.44924 64.499 2.5107 64.9734 2.54446C64.3675 2.54299 63.7253 2.56336 63.1578 2.57279C63.0637 2.57437 63.1931 2.54708 63.0324 2.55062C63.0179 2.55113 62.998 2.5771 62.8599 2.58082C61.7187 2.6123 62.2745 2.55314 62.061 2.53871C61.942 2.5307 61.854 2.52699 61.7895 2.52608C62.4507 2.515 63.2206 2.49939 63.4237 2.49736C63.2499 2.44116 61.9509 2.51924 61.5728 2.50774C61.5596 2.5073 61.6052 2.47543 61.5918 2.47533C61.5915 2.47533 61.5912 2.47533 61.591 2.47534C61.4491 2.47408 60.5411 2.4949 60.7284 2.53052C60.7787 2.54002 61.1971 2.5356 61.6914 2.5277C61.5576 2.53596 61.6578 2.57027 61.6343 2.57199C61.3487 2.59194 60.6433 2.56468 60.3958 2.56282C60.339 2.56242 60.3433 2.58495 60.334 2.5851C60.1077 2.58248 60.1998 2.51699 59.9684 2.58609C59.5577 2.5104 60.7361 2.56557 60.6524 2.51447C60.5898 2.47386 57.9702 2.52787 57.9792 2.59206C57.97 2.58542 57.9339 2.57753 57.8598 2.56902C57.6954 2.55003 56.9668 2.56753 56.8413 2.58122C56.8201 2.58385 56.8295 2.64512 56.8032 2.64609C56.7377 2.64842 55.8454 2.6146 55.5135 2.65675C55.6933 2.66227 55.8731 2.66785 56.0531 2.67349C54.9679 2.69224 55.1362 2.70801 55.4978 2.72002C55.5159 2.71987 55.5335 2.7219 55.5508 2.72186C55.8309 2.73062 56.1908 2.73781 56.1963 2.74257C56.2168 2.76023 54.3768 2.80267 54.7297 2.73963C54.7789 2.73084 55.6309 2.74127 55.2086 2.70801C55.1347 2.70213 54.5879 2.72357 54.5591 2.71966C54.3664 2.69325 55.56 2.63236 55.4133 2.59273C55.1242 2.63803 54.7517 2.62344 54.4194 2.64C54.2682 2.64751 54.2316 2.679 54.2129 2.67993C53.9341 2.69322 54.0901 2.658 53.9969 2.66057C53.9469 2.66203 53.3986 2.74141 53.5006 2.6447C51.6913 2.75106 53.0008 2.72359 54.112 2.69722C53.7615 2.73826 53.0729 2.73518 52.7644 2.7496C52.6537 2.75478 52.72 2.78502 52.5331 2.79522C52.1475 2.81571 50.3079 2.82048 49.8285 2.82402C50.1223 2.80581 50.0355 2.77344 49.8085 2.78127C49.5816 2.78914 49.7734 2.83048 49.7292 2.83649C49.6825 2.84257 48.6153 2.84736 48.4383 2.85806C49.2406 2.821 49.0585 2.79122 48.3773 2.80505C48.4754 2.79263 48.5736 2.78022 48.6719 2.76783C48.2726 2.79177 47.434 2.76161 47.2023 2.78361C47.1661 2.78709 47.2971 2.81241 47.2768 2.81437C47.0742 2.83205 46.3854 2.82177 46.3539 2.83258C46.327 2.84153 46.6209 2.85749 46.5124 2.87245C46.4895 2.8756 46.2068 2.84449 45.9277 2.86212C45.824 2.86863 45.8873 2.89412 45.8612 2.89646C45.6439 2.91588 45.7708 2.86616 45.3737 2.88519C45.0829 2.89923 44.8678 2.95058 44.4669 2.9479C45.7845 2.96557 44.6794 2.97456 44.1261 3.00913C44.0376 3.01466 44.1145 3.06173 43.5855 3.05425C44.7079 2.92944 43.2623 3.01681 42.9693 3.0256C42.9529 3.02583 42.9472 2.99331 42.8017 2.99752C42.7894 2.99795 42.8077 3.01944 42.6725 3.02556C41.3931 3.08394 42.2108 3.03189 41.9671 3.0182C41.8625 3.01237 41.2472 3.06463 41.077 3.07138C41.0383 3.07281 41.0553 3.04924 40.906 3.05536C40.6419 3.06626 40.407 3.09907 40.2337 3.10723C40.2135 3.10808 40.211 3.07188 39.8835 3.09551C39.7915 3.10215 39.6886 3.11877 39.8197 3.1244C40.2531 3.14277 41.0841 3.05408 41.5762 3.07158C42.027 3.08721 40.6083 3.13899 40.5343 3.14213C40.5072 3.1432 40.7836 3.11541 40.5021 3.12183C40.2604 3.12744 39.8301 3.20552 39.4672 3.20531C39.4397 3.20531 39.1509 3.16297 39.1641 3.1594C39.1758 3.15667 39.6163 3.12885 39.5518 3.11589C39.544 3.11442 39.2637 3.12514 39.2269 3.11509C39.1816 3.10286 39.056 2.97097 38.9963 2.9698C38.8429 2.9671 38.9437 2.99446 38.8447 2.99602C38.6328 2.99934 37.8967 2.98738 37.873 3.03573C37.9951 3.03377 38.1181 3.0318 38.2399 3.02991C37.5601 3.06116 37.851 3.07008 37.755 3.08269C37.6519 3.09635 37.6792 3.05364 37.4509 3.05877C37.4001 3.05976 36.4515 3.10682 36.4666 3.12381C36.9965 3.07434 36.7995 3.13388 36.8248 3.13374C36.9168 3.13336 37.0331 3.09981 37.1568 3.09543C38.0285 3.06523 37.1511 3.14567 37.3574 3.14917C37.4283 3.15028 37.5687 3.1201 37.5989 3.12017C37.6969 3.12038 37.6998 3.15252 37.7651 3.14735C37.9176 3.13532 37.7375 3.09674 37.7495 3.0939C37.8844 3.05999 38.4224 3.07472 38.0904 3.13722C38.2923 3.14729 38.3108 3.08625 38.4694 3.10429C38.7837 3.14006 38.3153 3.14565 38.1885 3.15852C37.7299 3.20495 37.5922 3.18709 36.9483 3.22092C36.7184 3.23299 36.4399 3.27375 36.3319 3.27982C36.263 3.2836 35.6162 3.2087 35.6047 3.3689C35.3569 3.36393 34.9578 3.27591 34.6998 3.29204C34.4684 3.30657 34.5447 3.35972 34.5231 3.36285C34.4901 3.36772 34.211 3.37563 34.1174 3.38781C34.0077 3.40215 34.0635 3.4212 33.8896 3.43781C33.4535 3.47932 33.4602 3.42148 33.4154 3.41976C32.8899 3.40064 33.1232 3.47194 33.0076 3.48386C32.9035 3.49428 31.3854 3.53537 31.075 3.57219C31.2024 3.55428 31.3303 3.5364 31.4587 3.51853C31.2261 3.49399 30.9865 3.56466 30.979 3.50054C30.9376 3.60669 30.4517 3.56164 30.3091 3.57172C30.2526 3.57573 30.258 3.5932 30.1873 3.5976C29.9127 3.61477 29.29 3.63354 29.1383 3.65078C28.4908 3.72416 30.1551 3.69974 30.2832 3.69773C30.0253 3.70926 28.5442 3.81186 29.2283 3.8253C29.3342 3.82735 29.5197 3.7709 29.5794 3.76593C29.9743 3.73316 29.6655 3.79116 29.6967 3.79349C29.7495 3.79711 30.0081 3.74324 30.0776 3.74446C30.1009 3.74482 29.9537 3.79018 30.3341 3.77139C30.1494 3.81722 29.0788 3.84383 28.9378 3.86038C28.8892 3.8662 29.2013 3.92712 28.2907 3.90117C28.3015 3.90784 28.3124 3.91451 28.3233 3.92118C27.874 3.94871 27.4267 3.97681 26.989 4.00505C26.9239 4.00924 26.8589 4.01343 26.7942 4.01763C26.849 3.99763 27.1368 3.94704 26.7726 3.97562C26.5636 3.99212 26.7206 4.02017 26.7015 4.02238C26.5129 4.04064 23.2305 4.23636 22.5882 4.28985C22.3766 4.3059 21.7686 4.3797 21.7235 4.38367C21.4515 4.40607 20.4703 4.46051 20.2803 4.47992C20.1604 4.49195 20.2769 4.51414 20.1697 4.52103C20.0702 4.52739 20.1708 4.48933 20.1412 4.49037C19.8843 4.49794 18.0188 4.69046 17.5626 4.70371C17.8401 4.68698 19.1967 4.51331 19.1664 4.49517C19.1621 4.49256 18.8266 4.49708 18.7584 4.51401C18.642 4.49743 18.2614 4.60902 18.0532 4.61127C18.0293 4.61158 18.1198 4.55895 17.7396 4.5837C17.6075 4.59237 17.2766 4.65609 16.9304 4.64821C16.4381 4.70725 13.8373 4.90372 13.6646 4.97353C13.6592 4.97657 14.0248 4.95529 13.781 5.00027C13.4574 5.06022 13.7438 4.94182 13.3598 4.97458C13.2988 4.97919 12.2407 5.10296 12.2052 5.11305C11.8875 5.19787 12.8242 5.11438 12.8076 5.12243C12.7815 5.13942 12.0036 5.23409 11.9756 5.23417C11.9453 5.23399 12.5629 5.09891 11.8153 5.20785C11.9028 5.20581 11.9884 5.20403 12.0755 5.20214C11.7269 5.25658 11.6826 5.21635 11.5969 5.2233C11.3268 5.24543 11.0498 5.34656 10.6089 5.31366C10.4932 5.30479 10.6779 5.25756 10.6634 5.25589C10.5227 5.24212 10.364 5.3428 10.1492 5.308C10.134 5.30545 10.6063 5.21095 9.77209 5.31311C9.82984 5.31182 9.88775 5.31053 9.94582 5.30924C9.83109 5.33588 8.98777 5.44948 8.87672 5.46112C8.54534 5.49477 8.82796 5.41628 8.49505 5.46447C8.71506 5.49296 7.707 5.63317 7.75762 5.5774C7.62478 5.65702 6.76305 5.72642 6.3567 5.7827C6.10378 5.81725 5.58606 5.91876 5.50602 5.92728C5.40702 5.93773 5.4326 5.89147 5.25195 5.90829C5.19965 5.91316 4.67613 6.02083 4.20431 6.0476C4.11342 6.05272 3.91389 6.01057 4.07841 5.9678C4.35891 5.89463 4.91174 5.87108 4.89771 5.83062C4.88416 5.78679 4.15581 5.92197 3.95931 5.94589C3.04652 6.05644 3.56437 5.92967 3.53841 5.91881C3.47368 5.89286 2.97565 5.97009 2.955 5.97013C2.867 5.96937 3.21452 5.88784 3.21681 5.86575C3.21866 5.83703 2.73273 5.86043 2.84005 5.8344C2.99288 5.79724 3.44129 5.77144 3.46772 5.76545C3.82551 5.68363 3.32087 5.69467 3.1772 5.68453C3.134 5.68122 3.29779 5.63993 3.26278 5.64237C2.72884 5.67998 3.16502 5.74934 2.81395 5.79414C2.50115 5.8342 2.89554 5.7304 2.88334 5.72993C2.86786 5.72966 2.49371 5.78498 2.43281 5.7792C2.40334 5.77587 3.36086 5.54502 3.31579 5.51463C3.00539 5.5702 2.69909 5.62558 2.38924 5.68181C2.35738 5.63772 2.80943 5.60399 2.8541 5.59214C2.94519 5.56801 2.68328 5.5835 2.6921 5.56667C2.69646 5.55614 2.99422 5.47521 2.71832 5.50316C2.62375 5.51273 2.42944 5.57697 2.0816 5.59592C3.27087 5.36706 2.43767 5.46843 2.39954 5.45694C2.36233 5.44535 2.92781 5.31709 2.23524 5.43143C2.19083 5.34301 2.24546 5.39969 2.44009 5.35284C2.67827 5.29556 2.11671 5.35047 3.00124 5.23834C2.94443 5.20226 2.23591 5.31467 2.19797 5.31713C2.16509 5.319 2.31924 5.27316 2.26196 5.2746C1.58509 5.29344 2.04697 5.26112 1.84608 5.23727C1.82791 5.23512 1.19703 5.31321 1.67379 5.23076C2.54293 5.0807 2.91644 5.08718 3.04308 4.93258C2.3903 4.97355 1.6209 5.18095 1.42596 5.21293C1.1266 5.26188 1.43294 5.18639 1.39476 5.18463C1.38184 5.18415 1.12325 5.2269 1.11953 5.2253C0.919868 5.15331 2.26919 5.0437 2.68761 4.9619C2.57334 4.96404 2.45737 4.96649 2.34237 4.96884C2.49549 4.94454 2.64832 4.92037 2.80075 4.89635C2.06844 4.97807 2.77315 4.8887 2.94247 4.7794C2.98045 4.75482 2.50629 4.85964 3.04506 4.72499C2.63962 4.77504 2.76715 4.73842 2.40517 4.81776C2.41018 4.78337 3.22516 4.62032 3.54575 4.55497C2.39584 4.69239 3.06806 4.7123 2.0687 4.80166C1.89197 4.87051 2.36193 4.78957 2.32471 4.80221C2.19024 4.84759 1.86116 4.85952 1.48399 5.00463C1.42271 5.02836 1.69778 5.02891 1.30025 5.08895C1.25609 5.09555 0.996841 5.09894 0.999977 5.09576C1.02907 5.06204 1.28174 5.03339 1.2903 5.01989C1.29822 5.00713 1.01923 5.05774 1.01784 5.05478C1.00361 5.02048 1.24929 5.00456 1.21238 4.99891C1.13237 4.98657 0.114143 5.0675 1.43116 4.88426C0.346176 5.09545 1.29799 4.94521 1.72011 4.86364C1.82784 4.84289 1.85278 4.81719 2.00546 4.7859C2.20217 4.74554 2.43679 4.71977 2.53948 4.69995C2.64919 4.6787 2.01341 4.72485 2.924 4.60032C2.45493 4.62067 1.64403 4.80135 1.18536 4.83726C0.257858 4.90981 1.81032 4.65089 1.97192 4.61915C2.01471 4.61059 1.86582 4.60426 1.89427 4.59804C1.94012 4.58794 2.82604 4.46473 2.90955 4.42784C2.99276 4.39073 2.58598 4.47857 2.55527 4.45796C2.533 4.44398 3.59682 4.25127 3.01689 4.32807C2.61708 4.38094 1.89519 4.56158 1.76042 4.50878C2.34318 4.41196 2.92952 4.31552 3.51279 4.22123C3.18871 4.24214 2.86284 4.26382 2.53935 4.28552C3.19524 4.17568 3.76658 4.12084 4.38762 3.98867C2.87205 4.12468 4.86362 3.84556 4.8848 3.83285C4.88998 3.82539 4.29087 3.84048 4.19186 3.84204C4.70998 3.73548 6.30779 3.49361 5.35872 3.53936C5.5318 3.53469 5.9347 3.42731 5.92862 3.42445C5.8727 3.3921 4.97872 3.54632 5.12067 3.49009C5.28242 3.42493 5.5303 3.44585 5.78884 3.40466C7.12201 3.19438 6.72685 3.0405 8.07494 2.89465C8.04726 2.89088 8.01962 2.88711 7.992 2.88334C9.45783 2.70298 10.9167 2.54008 12.387 2.39164C12.9497 2.2658 14.4723 2.07046 15.2235 2.00676C15.3723 1.99351 16.122 1.95641 16.175 1.95761C16.2783 1.95914 15.7153 2.01557 15.9716 2.01264C16.0217 2.01147 17.2828 1.91189 17.1872 1.88566C17.0476 1.89374 16.6101 1.95063 16.5355 1.94916C16.0319 1.93013 19.8922 1.64788 20.087 1.61563C20.0011 1.61084 19.916 1.60602 19.8301 1.60131C20.0715 1.58802 20.3143 1.57493 20.5604 1.56188ZM9.69643 5.46326C9.56059 5.51558 9.18948 5.53548 8.98003 5.57232C8.68922 5.62328 8.2027 5.82411 8.40136 5.66081C8.83541 5.5932 9.26403 5.52775 9.69643 5.46326ZM16.0463 4.82828C15.7494 4.83718 15.9732 4.73965 16.2141 4.749C16.24 4.75023 16.443 4.81689 16.0463 4.82828ZM12.9861 5.09929C12.998 5.09697 13.2503 5.07204 13.2595 5.0723C13.4888 5.07851 12.7286 5.15349 12.9861 5.09929ZM27.7898 3.89294C27.4663 3.91462 27.7041 3.97026 27.9047 3.93047C27.9173 3.92795 27.8111 3.89157 27.7898 3.89294ZM27.5596 3.90421C27.3046 3.85673 26.8137 4.01107 27.2098 3.97534C27.248 3.97181 27.5711 3.90654 27.5596 3.90421ZM15.0027 4.89798C15.0339 4.87104 15.3371 4.85299 15.4639 4.84656C15.4624 4.86841 15.1313 4.88262 15.0027 4.89798ZM22.6427 4.25593C22.6569 4.23586 21.6033 4.31229 21.5351 4.34238C21.6988 4.31952 22.6343 4.27301 22.6427 4.25593ZM25.3345 4.05133C25.307 4.04977 24.9444 4.07759 24.9564 4.09335C25.1337 4.10366 25.456 4.05834 25.3345 4.05133ZM30.6972 3.7505C30.7163 3.74545 30.4392 3.65445 31.0892 3.69084C31.1838 3.69621 30.8491 3.74034 30.8817 3.74248C30.9538 3.74619 31.0089 3.74686 31.0532 3.74525C30.7533 3.7689 30.4374 3.78914 30.4076 3.78431C30.2638 3.76162 30.6881 3.75265 30.6972 3.7505ZM33.5116 3.53707C33.574 3.5171 33.9705 3.50829 34.0594 3.51138C34.0749 3.51202 34.0097 3.55985 34.1869 3.54857C34.3294 3.53946 34.1142 3.503 34.3926 3.49802C34.6743 3.49296 34.2997 3.5423 34.3245 3.54355C34.3572 3.54513 34.7924 3.50534 34.7803 3.53266C34.7707 3.55286 34.303 3.56003 34.1887 3.56939C34.0419 3.58136 34.2215 3.60634 33.9757 3.61027C33.8215 3.61277 33.9043 3.55098 33.8717 3.54951C33.8471 3.5482 33.2997 3.60658 33.5125 3.53722C33.5122 3.53717 33.5119 3.53712 33.5116 3.53707ZM31.1337 3.73867C31.1113 3.74175 31.0851 3.7441 31.0532 3.74525C31.0802 3.74312 31.1071 3.74086 31.1337 3.73867ZM10.5322 5.33573C10.6839 5.33557 10.2438 5.41139 10.0675 5.40946C10.0631 5.39083 10.5085 5.33563 10.5322 5.33573ZM31.4083 3.67777C31.8549 3.67042 31.5266 3.70639 31.1337 3.73867C31.2581 3.72155 31.2588 3.68028 31.4083 3.67777ZM18.7584 4.51401C18.7776 4.51675 18.7902 4.52249 18.7926 4.53341C18.742 4.52544 18.737 4.51932 18.7584 4.51401ZM19.797 4.44966C20.1528 4.38762 19.4251 4.44667 19.4333 4.47044C19.4358 4.47934 19.7824 4.45212 19.797 4.44966ZM28.2081 3.87275C28.1757 3.87127 28.6808 3.74094 27.9421 3.85885C28.3393 3.8486 27.9214 3.88315 27.9283 3.89172C27.9476 3.91623 28.6056 3.85492 28.7506 3.85826C28.8611 3.80621 28.3178 3.87745 28.209 3.8727C28.2087 3.87271 28.2084 3.87273 28.2081 3.87275ZM38.5947 3.34945C38.5059 3.37975 38.2249 3.38186 38.0303 3.38786C38.1203 3.35742 38.4037 3.35513 38.5947 3.34945ZM88.78 3.29378C87.4718 3.24698 87.3072 3.12954 88.5009 3.23686C88.5227 3.23891 88.8608 3.28714 88.78 3.29378ZM77.527 2.84305C77.4031 2.79273 77.8169 2.79357 78.0847 2.81931C78.1455 2.82509 78.3688 2.87851 78.1123 2.8822C78.122 2.82449 77.7247 2.79364 77.527 2.84305ZM31.6587 3.63486C31.7865 3.5967 32.1914 3.59983 32.4032 3.59459C32.2761 3.62684 31.8449 3.6357 31.6587 3.63486ZM84.4786 3.02782C84.3405 3.01849 84.245 3.05621 84.2688 3.06063C84.3756 3.08082 84.6351 3.05798 84.4786 3.02782ZM30.3663 3.69456C30.3465 3.67647 30.8788 3.63109 30.9192 3.67625C30.8039 3.67857 30.3798 3.7058 30.3663 3.69456ZM38.2343 3.34898C38.152 3.34246 38.5754 3.30883 38.7048 3.31357C38.695 3.33418 38.288 3.35318 38.2343 3.34898ZM82.2523 2.95776C82.1294 2.94988 81.8197 2.93845 81.7845 2.95412C81.7415 2.97365 82.1958 2.98167 82.2523 2.95776ZM105.236 4.59696C105.251 4.60611 104.768 4.60907 104.556 4.57286C104.156 4.50386 105.22 4.58966 105.236 4.59696ZM85.7875 3.0633C86.1747 3.12063 85.7446 3.06255 85.7596 3.10492C86.0214 3.11817 86.6718 3.15124 86.2256 3.08911C86.1394 3.07711 85.9097 3.07155 85.7875 3.0633ZM85.4275 3.03315C85.3849 3.04472 85.0996 3.07471 85.3447 3.08245C85.4579 3.08598 85.6418 3.04696 85.4275 3.03315ZM102.277 4.30657C101.931 4.23421 103.528 4.41713 103.573 4.42895C103.597 4.43486 103.612 4.4397 103.621 4.44335C103.681 4.43783 103.984 4.46743 104.015 4.50048C103.925 4.48852 103.677 4.4652 103.649 4.45896C103.636 4.45627 103.627 4.45402 103.621 4.45204C103.513 4.46616 102.342 4.31979 102.277 4.30657ZM99.6319 4.01056C100.034 3.99374 100.098 4.09282 100.063 4.09242C99.6242 4.08886 99.9144 4.04792 99.901 4.04343C99.8715 4.03527 99.5609 4.03785 99.6332 4.01068C99.6327 4.01064 99.6323 4.0106 99.6319 4.01056ZM101.735 4.23687C101.75 4.23718 102.087 4.27376 102.1 4.2766C102.372 4.33503 101.424 4.23211 101.735 4.23687ZM35.6336 3.37904C35.8744 3.37806 35.6398 3.42196 35.48 3.41654C35.4669 3.41589 35.4214 3.37992 35.6336 3.37904ZM85.2336 3.03376C85.1785 3.02409 83.7523 2.94107 83.8352 2.99638C83.9611 2.99417 85.5755 3.08922 85.2336 3.03376ZM74.5583 2.72558C74.8132 2.72939 74.5331 2.77403 74.4017 2.7543C74.3524 2.74696 74.4948 2.72467 74.5583 2.72558ZM29.653 3.68761C29.3919 3.72802 29.4426 3.63598 29.6703 3.6546C29.6792 3.65534 29.663 3.68604 29.653 3.68761ZM76.5757 2.78499C75.6996 2.79917 75.916 2.64842 77.0427 2.72143C77.0074 2.72758 76.9721 2.73374 76.9368 2.7399C78.2352 2.78888 77.0254 2.75203 76.7068 2.75498C76.5853 2.75601 76.6867 2.7835 76.5765 2.78519C76.5763 2.78513 76.576 2.78506 76.5757 2.78499ZM73.2332 2.70708C72.393 2.58966 74.0017 2.67665 74.4536 2.66909C74.012 2.70834 73.4329 2.69487 74.2179 2.75033C73.0688 2.74558 73.5459 2.70814 73.5008 2.70387C73.4463 2.69922 73.2692 2.71212 73.2332 2.70708ZM75.4446 2.73457C75.4918 2.73217 75.8356 2.75847 75.9738 2.75865C75.9779 2.75865 75.9818 2.75864 75.9855 2.7586C75.9818 2.75927 75.9779 2.75992 75.9738 2.76053C75.7774 2.79099 75.13 2.75096 75.4446 2.73457ZM96.8523 3.78783C96.8851 3.76138 96.9592 3.74599 97.2469 3.78162C97.1568 3.78856 96.9718 3.78541 96.8523 3.78783ZM9.40414 5.3451C9.20554 5.3678 8.81658 5.4065 8.93942 5.42171C8.95197 5.42261 9.40491 5.36222 9.40414 5.3451ZM81.0897 2.85596C81.0505 2.85074 79.9566 2.81661 80.3337 2.85971C80.4499 2.87236 81.4364 2.89833 81.0897 2.85596ZM86.7262 3.08287C86.6357 3.07808 86.2609 3.06567 86.2547 3.07234C86.2263 3.09479 86.6861 3.10367 86.7262 3.08287ZM8.41069 5.44224C8.38457 5.44237 7.78788 5.52675 7.85479 5.53226C7.9859 5.54155 8.49945 5.44105 8.41069 5.44224ZM36.5092 3.27418C36.5601 3.27101 36.6288 3.29989 36.6465 3.29953C36.6885 3.29811 37.6106 3.24895 37.2594 3.30371C37.2032 3.31247 35.8646 3.35168 35.6929 3.35527C35.6239 3.31463 36.1945 3.33206 36.3341 3.32189C36.3586 3.32003 36.3727 3.28303 36.5087 3.27438C36.5089 3.27431 36.509 3.27424 36.5092 3.27418ZM98.3476 3.88729C98.3911 3.86297 99.4758 3.9439 99.4606 3.97653C99.0885 3.94603 98.719 3.91641 98.3476 3.88729ZM97.7971 3.83385C97.5685 3.79415 98.1079 3.835 98.2688 3.85817C98.2686 3.87676 97.8297 3.8395 97.7971 3.83385ZM84.6693 2.88621C84.5602 2.88838 84.8932 2.94279 84.818 2.94747C84.77 2.95029 84.5271 2.92498 84.4485 2.93439C84.4263 2.93747 84.6737 2.98568 84.7453 2.9871C84.8472 2.98922 84.7498 2.95522 84.8608 2.95974C85.2254 2.97462 85.5628 3.0109 85.9072 3.02626C85.9385 3.02759 85.6969 2.99539 85.9636 3.00796C86.0059 3.00993 86.2468 3.05243 86.5717 3.06346C87.2838 3.00078 87.8006 3.12249 88.6945 3.13679C88.6594 3.12548 87.9956 3.06485 87.9546 3.06196C87.2014 3.00536 85.8668 2.93931 85.0741 2.90548C84.8743 2.89678 84.9704 2.92152 84.8842 2.91858C84.8159 2.91624 84.899 2.88159 84.6693 2.88621ZM9.50668 5.31104C9.40707 5.28509 9.08054 5.35049 8.87322 5.37517C8.95025 5.39983 9.2981 5.32852 9.50668 5.31104ZM92.9298 3.41786C92.825 3.41187 92.4991 3.37768 92.4711 3.38727C92.4356 3.39973 92.9062 3.44202 92.9298 3.41786ZM41.7369 3.08937C41.7471 3.08798 42.0023 3.0814 42.0121 3.08228C42.2411 3.1051 41.4756 3.1247 41.7369 3.08937ZM47.851 2.91239C48.0443 2.90258 48.2394 2.88562 48.3053 2.9148C48.1817 2.91324 47.8289 2.93447 47.851 2.91239ZM56.2869 2.73139C56.2463 2.69158 56.8302 2.70846 56.9403 2.71045C56.8998 2.72899 56.3168 2.75998 56.2869 2.73139ZM96.8214 3.65787C97.1732 3.6901 97.1062 3.62301 97.3291 3.66997C97.3654 3.67784 97.4741 3.81505 97.0866 3.73388C97.0176 3.71941 97.2926 3.71232 96.8214 3.65787ZM77.2253 2.7263C77.3135 2.70129 77.6005 2.71507 77.7923 2.72135C77.75 2.74027 77.3569 2.72695 77.2253 2.7263ZM7.32739 5.55586C7.15411 5.54093 6.399 5.67421 6.59011 5.67286C6.61923 5.67188 7.21728 5.56915 7.32739 5.55586ZM32.5602 3.46946C32.874 3.42488 32.2216 3.44643 32.011 3.48577C32.1061 3.47923 32.5404 3.47231 32.5602 3.46946ZM54.2599 2.7448C54.2752 2.74328 54.6125 2.73991 54.6276 2.74112C54.9046 2.76705 53.9502 2.77675 54.2599 2.7448ZM45.8391 2.91889C45.9619 2.89078 46.7576 2.88805 46.9381 2.9077C46.7664 2.94802 45.6902 2.95364 45.8391 2.91889ZM95.3611 3.55562C95.6151 3.57452 95.8529 3.6013 96.0838 3.63084C96.0332 3.64717 95.3877 3.57299 95.3611 3.55562ZM55.4978 2.72002C55.5159 2.71987 55.5335 2.7219 55.5508 2.72186C55.5328 2.72129 55.5151 2.7206 55.4978 2.72002ZM89.6929 3.14855C89.4828 3.12801 89.5241 3.16829 89.5371 3.1702C89.6944 3.19163 89.933 3.17199 89.6929 3.14855ZM9.25721 5.2859C9.17814 5.26148 8.83262 5.33205 8.62472 5.35088C8.68993 5.36947 9.0919 5.31024 9.25721 5.2859ZM72.3386 2.62893C72.0736 2.58962 73.1536 2.55625 73.3891 2.58291C73.4029 2.60562 72.3786 2.63405 72.3386 2.62893ZM31.5698 3.46596C31.5467 3.44033 31.0939 3.49497 31.1911 3.50279C31.2523 3.50776 31.5831 3.48189 31.5698 3.46596ZM73.9377 2.60463C74.0401 2.59768 74.2771 2.62696 74.1933 2.64198C74.0859 2.66121 73.9113 2.60665 73.9377 2.60463ZM83.1107 2.80091C83.0669 2.79507 82.4595 2.80071 82.7091 2.83689C82.8822 2.86202 82.911 2.8245 82.9518 2.82586C82.9986 2.82747 83.9599 2.91096 83.1107 2.80091ZM66.2354 2.58869C66.4625 2.57787 66.7366 2.58928 66.9731 2.58825C66.877 2.60482 66.3324 2.61032 66.2354 2.58869ZM33.3327 3.37517C33.2732 3.36669 31.783 3.43061 32.6307 3.42378C32.6789 3.42325 33.5015 3.40005 33.3327 3.37517ZM96.8214 3.65787C96.7769 3.65381 96.7255 3.6482 96.666 3.64056C96.7252 3.64657 96.7766 3.65272 96.8214 3.65787ZM92.7924 3.34192C92.8752 3.32822 92.4657 3.29437 92.3429 3.2964C92.3042 3.31745 92.7815 3.34378 92.7924 3.34192ZM66.991 2.56113C67.1286 2.54984 67.3784 2.56149 67.5482 2.56016C67.5197 2.57818 67.0506 2.57936 66.991 2.56113ZM57.3697 2.62064C57.6423 2.62731 57.9773 2.61765 57.9821 2.5955C57.9878 2.59887 58.0011 2.60235 58.0231 2.60573C58.0453 2.60905 58.3367 2.59475 58.4633 2.60061C59.2224 2.63414 55.5354 2.66944 57.6711 2.57557C57.5707 2.59057 57.4701 2.6056 57.3697 2.62064ZM44.7567 2.89881C44.6024 2.87652 44.1703 2.9235 44.283 2.93064C44.3629 2.93539 44.9114 2.92121 44.7567 2.89881ZM50.6986 2.72497C50.6522 2.7212 50.23 2.74989 50.2195 2.76433C50.4627 2.77349 50.9096 2.74242 50.6986 2.72497ZM43.5681 2.90402C43.4711 2.90303 43.3491 2.95031 43.3605 2.95184C43.4593 2.96452 43.7316 2.92302 43.5681 2.90402ZM96.0953 3.48021C95.9532 3.456 95.4953 3.45058 95.3926 3.47124C95.3745 3.46425 95.325 3.45306 95.2337 3.43716C95.234 3.43718 95.2343 3.4372 95.2345 3.43723C95.1149 3.41135 91.4127 3.13005 93.8912 3.36542C93.969 3.37299 93.8623 3.33917 94.1804 3.36755C94.2013 3.36946 94.2102 3.39117 94.2749 3.39708C94.4252 3.41036 95.2095 3.48436 95.3725 3.48066C95.3735 3.48465 95.3835 3.48915 95.4051 3.49428C95.5987 3.53986 96.2043 3.49867 96.0953 3.48021ZM51.5355 2.70228C51.4504 2.69636 51.1817 2.70974 51.1543 2.72889C51.2877 2.73494 51.7331 2.71608 51.5355 2.70228ZM33.2824 3.30141C33.1078 3.29415 32.6724 3.34303 32.8051 3.35198C32.8857 3.35745 33.4831 3.30965 33.2824 3.30141ZM48.8412 2.77581C49.8358 2.77289 49.0786 2.7681 49.2301 2.73715C49.1004 2.75001 48.9708 2.7629 48.8412 2.77581ZM100.658 3.95926C100.502 3.93789 100.691 3.90233 100.861 3.94805C100.914 3.9625 100.745 3.97112 100.658 3.95926ZM107.765 4.6872C107.636 4.6251 108.289 4.72539 108.029 4.72952C108.017 4.72929 107.774 4.69005 107.765 4.6872ZM102.801 4.13646C102.69 4.15769 102.622 4.15445 102.322 4.11603C102.767 4.15211 102.358 4.08164 102.801 4.13646ZM57.9792 2.59206C57.9809 2.59334 57.9824 2.59429 57.9821 2.5955C57.9802 2.59433 57.9793 2.59322 57.9792 2.59206ZM42.6361 2.94248C42.5104 2.91915 42.1617 2.93276 42.2665 2.95688C42.2766 2.95909 42.5855 2.96438 42.6361 2.94248ZM95.3926 3.47124C95.4087 3.47745 95.4001 3.47994 95.3725 3.48066C95.3715 3.47691 95.3789 3.47403 95.3926 3.47124ZM44.5058 2.86098C44.4938 2.88177 45.0228 2.87376 45.0442 2.87077C45.3471 2.82626 44.7235 2.85305 44.5058 2.86098ZM29.7825 3.44445C29.7555 3.448 29.9327 3.49159 30.0392 3.46536C30.1216 3.44502 29.8832 3.43103 29.7825 3.44445ZM103.824 4.22911C103.991 4.24662 104.226 4.27133 104.267 4.30084C104.156 4.28521 103.819 4.24703 103.824 4.22911ZM107.511 4.62464C107.311 4.63214 106.861 4.58263 106.573 4.54637C106.572 4.50718 107.325 4.61317 107.511 4.62464ZM96.5486 3.53223C96.5353 3.52946 96.1161 3.48317 96.1713 3.51382C96.2525 3.55863 96.6656 3.55615 96.5486 3.53223ZM30.5989 3.43041C30.7871 3.40295 30.3488 3.37012 30.1536 3.42278C30.0527 3.44972 30.5666 3.43499 30.5989 3.43041ZM41.5475 2.94302C41.3006 2.9665 41.9149 2.97231 42.0002 2.94234C41.8858 2.94399 41.6352 2.93469 41.5475 2.94302ZM49.9983 2.67085C49.214 2.61138 49.6436 2.74398 49.782 2.72806C49.8015 2.72579 50.0175 2.67223 49.9983 2.67085ZM5.38844 5.67048C5.28109 5.69701 5.69266 5.67729 5.74237 5.64403C5.77254 5.62325 5.45663 5.65352 5.38844 5.67048ZM61.7895 2.52608C61.7565 2.52663 61.7238 2.52718 61.6914 2.5277C61.7157 2.5262 61.7477 2.5255 61.7895 2.52608ZM39.2887 2.91856C39.8461 3.00861 39.7844 2.92572 39.8321 2.92441C39.935 2.92185 40.1755 2.94307 40.3701 2.93121C40.1473 2.95163 39.9261 2.97208 39.7037 2.99268C39.8772 2.99391 41.4144 2.98038 41.4447 2.96175C41.4905 2.9346 41.0077 2.9593 40.9932 2.95759C40.9728 2.95509 40.8948 2.88677 40.8498 2.88565C40.7739 2.88374 39.4985 2.92813 39.2887 2.91856ZM48.3613 2.72377C48.4874 2.72896 48.5239 2.75617 48.5822 2.74795C48.6021 2.74514 48.6046 2.71824 48.6725 2.70956C48.5687 2.71428 48.465 2.71901 48.3613 2.72377ZM38.3078 3.05515C38.1512 3.02832 38.8476 3.01415 38.8707 3.01703C38.9908 3.03472 38.435 3.077 38.3078 3.05515ZM44.2399 2.84531C44.214 2.84415 43.6758 2.85068 43.6809 2.86877C43.823 2.87808 44.5435 2.85992 44.2399 2.84531ZM48.7565 2.7056C48.9454 2.70392 49.3036 2.72207 49.2616 2.6827C49.2613 2.68271 49.2611 2.68271 49.2608 2.68272C49.0926 2.6903 48.9245 2.69793 48.7565 2.7056ZM31.2385 3.31289C30.889 3.26585 31.0565 3.33886 31.3651 3.34439C31.4569 3.31094 31.2958 3.32052 31.2385 3.31289ZM30.1173 3.3216C30.0214 3.3147 29.0201 3.38042 29.1742 3.40644C29.2298 3.41552 29.8066 3.35439 29.8308 3.35556C29.8709 3.35696 29.6904 3.40408 29.9951 3.38074C29.9765 3.36892 30.1506 3.32375 30.1173 3.3216ZM30.95 3.28601C30.5971 3.25474 30.5235 3.34891 30.7865 3.33585C30.8897 3.3308 30.9997 3.29059 30.95 3.28601ZM32.3677 3.2245C32.2422 3.22189 31.9053 3.22555 31.6777 3.26672C31.9836 3.25437 32.2988 3.24182 32.6003 3.23017C32.6346 3.21153 32.4762 3.22687 32.3669 3.22454C32.3672 3.22453 32.3674 3.22452 32.3677 3.2245ZM109.614 4.62504C109.342 4.56903 109.977 4.62972 110.003 4.63897C110.08 4.66857 109.736 4.65007 109.614 4.62504ZM3.13593 5.17735C3.0583 5.17889 3.00339 5.15331 2.83916 5.19631C3.01045 5.19508 3.18385 5.19364 3.35479 5.19271C3.47631 5.11679 3.22146 5.17565 3.13593 5.17735ZM2.4626 5.07088C2.48608 5.06588 2.34322 4.99953 2.65892 5.00986C2.87273 5.01654 1.75069 5.22885 1.54145 5.22269C1.76354 5.16974 2.25942 5.11353 2.4626 5.07088ZM0.43013 5.0056C0.416084 5.00075 0.842613 4.92343 0.892868 4.92053C1.15701 4.90529 0.506363 5.03135 0.43013 5.0056ZM1.79891 4.80819C1.59518 4.82275 2.03897 4.74259 2.17277 4.73179C2.18794 4.74585 1.83083 4.80569 1.79891 4.80819ZM106.97 3.06037C106.758 2.97744 106.548 3.08306 106.888 3.09427C106.904 3.09482 106.98 3.06428 106.97 3.06037ZM0.834999 4.85287C1.03831 4.83814 0.595543 4.91867 0.461258 4.9299C0.446442 4.91579 0.804108 4.8552 0.834999 4.85287ZM106.832 2.903C106.546 2.8288 106.633 2.98246 106.668 2.99216C106.816 3.03113 107.334 3.0314 107.44 3.02903C106.671 2.96622 106.966 2.938 106.832 2.903ZM105.482 2.84329C105.211 2.82955 105.897 2.93261 106.033 2.90725C105.899 2.89463 105.559 2.84706 105.482 2.84329ZM103.85 2.62415C103.706 2.6039 103.276 2.54707 103.201 2.56207C103.36 2.5743 103.786 2.64081 103.85 2.62415ZM103.529 2.52286C103.305 2.46893 103.242 2.55212 103.506 2.5527C103.516 2.55272 103.537 2.52542 103.529 2.52286ZM102.257 2.36055C102.111 2.31022 101.932 2.37919 102.174 2.40575C102.245 2.4135 102.272 2.36618 102.257 2.36055ZM106.485 2.71005C106.274 2.67176 105.993 2.70356 106.446 2.75965C106.286 2.75171 106.125 2.74381 105.964 2.73594C106.556 2.83493 106.521 2.7449 106.692 2.76708C106.93 2.79818 106.904 2.86657 106.853 2.88344C107.054 2.86162 107.886 2.95231 108.367 2.99735C107.947 2.93248 107.265 2.82557 106.849 2.76857C106.73 2.75224 106.612 2.75891 106.511 2.74573C106.349 2.72447 106.497 2.71236 106.486 2.71014C106.485 2.71011 106.485 2.71008 106.485 2.71005ZM100.58 2.19434C100.145 2.11236 100.414 2.22527 100.663 2.23362C100.674 2.23346 100.59 2.19636 100.58 2.19434ZM0.218796 4.68256C0.804314 4.6274 0.389732 4.74071 1.59192 4.47888C1.09023 4.60952 1.56939 4.52002 1.47314 4.55615C1.39589 4.5849 1.09502 4.61813 1.2739 4.6238C1.03921 4.62376 0.0496291 4.7894 0.00456987 4.79056C0.00498185 4.7905 0.00540147 4.79043 0.00581346 4.79037C-0.0212556 4.7911 0.0320815 4.70022 0.218796 4.68256ZM103.871 2.3981C103.736 2.27813 103.662 2.4385 103.385 2.322C102.99 2.40844 104.44 2.43156 104.602 2.55698C103.044 2.3803 105.62 2.77129 104.549 2.49693C105.44 2.64992 104.845 2.50836 104.986 2.50273C105.137 2.49684 105.641 2.57471 105.619 2.53296C105.619 2.53293 105.619 2.53289 105.618 2.53287C105.309 2.50231 104.997 2.47182 104.687 2.44167C104.981 2.55797 104.351 2.46567 104.142 2.37455C104.052 2.38238 103.962 2.39023 103.871 2.3981ZM105.619 2.66334C105.589 2.65807 104.913 2.59771 104.955 2.6193C105.045 2.63955 106.002 2.7294 105.619 2.66334ZM108.589 2.96975C108.347 2.94271 107.974 2.88497 107.839 2.90215C108.081 2.92906 108.453 2.98688 108.589 2.96975ZM96.0991 1.7245C95.7871 1.72521 96.7417 1.81134 96.4679 1.75772C96.4546 1.7551 96.1131 1.72436 96.0991 1.7245ZM103.167 2.34121C102.855 2.27688 102.994 2.39407 103.23 2.39147C103.244 2.39129 103.182 2.34417 103.167 2.34121ZM0.686638 4.59646C0.703392 4.56834 1.5475 4.45399 1.69703 4.43062C1.61546 4.46678 0.666992 4.62859 0.686638 4.59646ZM109.025 2.92363C108.553 2.78039 107.888 2.81187 107.817 2.80172C107.746 2.79156 107.862 2.76466 107.846 2.76181C107.809 2.75545 107.05 2.67534 107.013 2.67412C106.986 2.67337 107.118 2.74354 106.959 2.74375C107.268 2.7456 108.653 2.91847 108.726 2.92047C108.782 2.92179 108.368 2.81726 109.024 2.92353C109.024 2.92356 109.024 2.92359 109.025 2.92363ZM107.639 2.76997C107.826 2.81395 107.294 2.75831 107.167 2.73572C106.883 2.68529 107.615 2.76446 107.639 2.76997ZM106.362 2.60871C106.302 2.59689 105.754 2.53282 105.705 2.55356C105.961 2.61491 106.499 2.63574 106.362 2.60871ZM100.252 1.98504C100.107 1.97454 99.7198 1.91818 99.6945 1.93859C99.8379 1.94858 100.227 2.00528 100.252 1.98504ZM3.53097 3.95699C3.29188 3.97396 3.83839 3.88359 3.99809 3.86906C4.00889 3.88262 3.55191 3.95539 3.53097 3.95699ZM103.136 2.12061C103.052 2.10416 101.329 1.94834 101.083 1.93614C101.321 1.97541 103.026 2.14801 103.105 2.14855C103.128 2.14839 103.147 2.12279 103.136 2.12061ZM106.86 2.50603C107.022 2.49017 107.12 2.54115 107.14 2.54383C107.335 2.57023 107.74 2.60727 107.647 2.6294C107.305 2.57858 106.539 2.53746 106.86 2.50603ZM100.143 1.82334C99.5575 1.78037 100.679 1.9218 100.535 1.87333C100.526 1.8703 100.205 1.82778 100.143 1.82334ZM103.33 2.13078C103.461 2.1165 105.182 2.32077 105.458 2.35119C105.206 2.37404 105.009 2.31512 104.677 2.28242C104.587 2.27368 104.609 2.29675 104.599 2.29576C104.444 2.28031 104.562 2.26886 104.467 2.2584C104.406 2.25144 103.144 2.14949 103.33 2.13078ZM106.953 2.49294C107.051 2.48434 108.126 2.59445 108.169 2.60438C108.488 2.67749 107.036 2.50843 106.953 2.49294ZM103.176 2.07059C103.368 2.03216 104.218 2.15944 103.63 2.12727C103.574 2.12408 103.34 2.0747 103.176 2.07059ZM100.212 1.7746C100.182 1.76995 99.5746 1.70141 99.5611 1.71873C99.6492 1.73376 100.538 1.82422 100.212 1.7746ZM100.535 1.74307C100.52 1.7421 100.66 1.79099 100.374 1.75912C100.35 1.75651 100.307 1.71227 99.9476 1.69304C99.8744 1.68917 99.7589 1.70479 99.7669 1.70719C100.133 1.80361 101.277 1.79387 100.535 1.74307ZM106.976 2.46306C106.92 2.44003 107.065 2.40577 107.188 2.44466C107.241 2.46141 107.137 2.48009 106.976 2.46306ZM98.2744 1.58057C98.6323 1.5818 97.5191 1.4779 97.46 1.48109C97.4957 1.50282 98.238 1.58007 98.2744 1.58057ZM4.04852 3.64344C4.04824 3.64348 4.04797 3.64352 4.04768 3.64356C4.3465 3.60602 4.16576 3.65834 4.17977 3.65704C4.81823 3.59982 4.64166 3.56869 4.73991 3.54739C4.95061 3.50193 4.92752 3.57513 5.28022 3.49516C4.69649 3.62249 5.23038 3.52718 5.25092 3.54916C5.33223 3.63873 4.45612 3.61697 4.16381 3.68218C4.12285 3.69119 4.43262 3.6777 4.32806 3.70242C3.98785 3.78243 2.90608 3.78843 4.04852 3.64344ZM107.286 2.45094C107.427 2.43657 108.472 2.58073 108.191 2.57424C108.146 2.57308 107.078 2.47136 107.286 2.45094ZM58.0436 0.371251C58.2968 0.342165 57.7088 0.320317 57.6 0.341846C57.5461 0.352523 57.9325 0.383987 58.0436 0.371251ZM53.9235 0.329974C53.6224 0.340902 53.3071 0.453702 53.6814 0.429861C53.7211 0.427274 53.9583 0.34409 53.9235 0.329974ZM73.7083 0.278498C73.3931 0.236911 73.411 0.307902 73.6429 0.309446C73.7246 0.310018 73.7182 0.279817 73.7083 0.278498ZM61.6983 0.283688C61.6669 0.281479 61.3034 0.289408 61.3168 0.305563C61.4514 0.313989 61.9018 0.298801 61.6983 0.283688ZM73.8085 0.269567C73.6215 0.280196 73.9428 0.334983 74.1704 0.287788C74.0551 0.290456 73.8278 0.268475 73.8085 0.269567ZM102.545 1.84909C102.387 1.86223 101.946 1.80918 101.694 1.78931C101.67 1.749 102.364 1.83741 102.545 1.84909ZM55.2026 0.349447C54.9181 0.380959 55.529 0.392016 55.4724 0.357957C55.4646 0.356177 55.2138 0.34811 55.2026 0.349447ZM83.867 0.512173C83.659 0.526449 84.3165 0.58262 84.1367 0.53602C84.1272 0.534007 83.8776 0.511312 83.867 0.512173ZM86.7451 0.651019C86.5848 0.635454 85.9178 0.606684 86.1765 0.640682C86.2151 0.645739 86.7319 0.670862 86.7451 0.651019ZM4.75359 3.518C4.66367 3.49199 5.15443 3.42975 5.22429 3.42664C5.25208 3.42541 4.87148 3.55149 4.75359 3.518ZM71.6613 0.253766C71.4984 0.257405 71.0789 0.245583 71.004 0.265476C71.2036 0.262356 71.7127 0.294503 71.6613 0.253766ZM56.5026 0.327567C56.2537 0.289461 55.8293 0.300653 55.9351 0.353811C56.4038 0.342446 55.8765 0.305316 56.5026 0.327567ZM74.8571 0.237608C74.7257 0.232582 74.6239 0.283967 74.6387 0.286647C74.7813 0.312174 74.9874 0.25994 74.8571 0.237608ZM65.0576 0.240158C65.0501 0.217625 64.6322 0.229761 64.688 0.244021C64.7065 0.248778 65.0638 0.258345 65.0576 0.240158ZM97.0809 1.32614C96.8913 1.28942 97.4774 1.31896 97.6491 1.3581C97.7309 1.39979 97.1029 1.33022 97.0809 1.32614ZM78.4812 0.317377C78.5022 0.284289 77.8475 0.288593 78.1048 0.32204C78.1695 0.330372 78.4744 0.328373 78.4812 0.317377ZM84.7521 0.479641C84.3112 0.500323 86.1541 0.60874 85.6717 0.538047C85.636 0.532612 84.7896 0.477554 84.7521 0.479641ZM87.7613 0.645536C87.685 0.637214 87.7296 0.526868 88.0421 0.586712C88.0831 0.594496 87.8883 0.613984 87.9217 0.622549C87.9424 0.627318 88.6221 0.679605 88.6523 0.67884C88.686 0.677708 88.6485 0.639579 88.6827 0.637415C88.7192 0.634843 89.1427 0.690096 89.3614 0.703093C89.7747 0.727521 89.8195 0.700392 89.8534 0.702245C89.9521 0.707879 90.1195 0.739153 90.3202 0.751332C91.3286 0.81142 92.8768 0.890638 93.6741 1.01327C92.9594 0.935712 92.2786 0.915906 91.5728 0.878168C91.7863 0.829007 90.5212 0.859059 91.2621 0.834025C90.9248 0.824148 88.0115 0.668551 87.7621 0.64558C87.7619 0.645565 87.7616 0.645551 87.7613 0.645536ZM52.7344 0.321996C52.9187 0.279763 51.9694 0.308144 51.8898 0.354393C52.0152 0.357773 52.7117 0.326742 52.7344 0.321996ZM57.1124 0.150365C57.2005 0.142435 57.2827 0.0660945 57.7463 0.0974567C57.7467 0.0974506 57.7471 0.0974447 57.7475 0.0974386C57.883 0.106614 57.7291 0.127083 57.754 0.13324C57.7631 0.135751 58.1854 0.167112 57.8352 0.17805C57.3008 0.194927 57.7841 0.122966 57.499 0.126305C57.4637 0.126712 56.9261 0.175385 56.9575 0.183854C56.9608 0.184838 57.1227 0.173788 57.1495 0.177093C57.2507 0.189494 57.2019 0.213649 57.2162 0.214549C57.2623 0.216603 58.1152 0.164415 58.2393 0.19769C58.2799 0.208092 56.8808 0.254296 56.8266 0.249598C56.7921 0.246451 56.8057 0.181232 56.7699 0.175394C56.7515 0.172448 56.1892 0.20575 56.116 0.201024C56.0948 0.199643 56.0785 0.198046 56.0666 0.196706C56.1522 0.215387 55.6422 0.222417 55.6576 0.199498C55.6662 0.190415 56.0173 0.189713 56.0298 0.191085C56.0354 0.191654 56.0402 0.192485 56.0446 0.193039C55.9717 0.169537 57.1591 0.151904 56.9022 0.119507C57.2459 0.0942739 56.8542 0.173739 57.1124 0.150365ZM58.7665 0.0870092C58.7311 0.094306 58.6957 0.101605 58.6603 0.108907C59.2618 0.0842607 59.9599 0.108785 60.6524 0.101285C60.829 0.0994314 60.6254 0.0597278 60.857 0.0687667C61.0424 0.0760211 61.2477 0.112812 61.1471 0.122442C61.1227 0.124821 60.7448 0.103351 60.5564 0.107976C60.001 0.121643 60.1415 0.156062 60.1091 0.157363C60.0732 0.15877 59.7229 0.137554 59.5314 0.140997C59.0498 0.14975 58.831 0.174446 58.1738 0.154637C58.5526 0.125853 58.3443 0.0772894 58.7665 0.0870092ZM81.2493 0.290786C81.2716 0.268851 81.6668 0.301359 81.8119 0.302861C81.789 0.324696 81.3895 0.291748 81.2493 0.290786ZM22.4735 1.48132C22.3533 1.52663 23.2669 1.47276 23.0243 1.45862C22.9697 1.45544 22.5866 1.4736 22.4735 1.48132ZM26.5535 1.24113C26.675 1.22364 26.1814 1.22627 26.1848 1.25485C26.1857 1.26397 26.5374 1.24338 26.5535 1.24113ZM66.5595 0.0639639C66.5825 0.0627382 66.9156 0.0704556 66.9259 0.0723473C67.1469 0.111244 66.0498 0.090492 66.5595 0.0639639ZM31.5067 0.929176C31.0837 0.974027 32.3619 0.922575 31.9698 0.91058C31.9498 0.909991 31.5266 0.926981 31.5067 0.929176ZM33.2776 0.838551C33.1753 0.844495 32.7244 0.853368 32.7194 0.864954C32.7108 0.883555 33.2271 0.872079 33.2776 0.838551ZM74.9478 0.0989607C74.8995 0.0564835 75.4957 0.0967052 75.7008 0.0948286C75.7494 0.137288 75.1565 0.0964951 74.9478 0.0989607ZM71.1927 0.0307496C73.7018 0.0168322 73.148 0.100697 71.0436 0.0501799C71.0407 0.0233978 71.0349 0.0318599 71.1927 0.0307496ZM74.4032 0.0658283C74.3124 0.0913817 74.0291 0.0799364 73.8365 0.0755942C73.8715 0.0573745 74.2656 0.068819 74.4032 0.0658283ZM21.3885 1.50157C21.5414 1.45629 22.2477 1.44749 22.122 1.47049C22.0975 1.47503 21.3296 1.52432 21.3885 1.50157ZM66.7688 0.0278942C66.7092 -0.0126849 67.4639 0.00304457 67.5216 0.0121572C67.7551 0.0482378 66.8272 0.0186693 66.7688 0.0278942ZM78.5099 0.129203C78.6414 0.100421 79.0207 0.125848 79.2653 0.132517C79.154 0.156821 78.7122 0.134395 78.5099 0.129203ZM76.757 0.0677289C76.7725 0.0667593 77.1103 0.0760515 77.1251 0.0778406C77.4012 0.114147 76.4455 0.0880619 76.757 0.0677289ZM3.5919 3.40319C3.60378 3.40034 3.85661 3.36445 3.86591 3.3643C4.09706 3.36047 3.33399 3.46871 3.5919 3.40319Z" fill="#EE0000"/>
</svg>
