<svg width="48" height="48" viewBox="0 0 48 48" fill="none" xmlns="http://www.w3.org/2000/svg">
<rect width="48" height="48" rx="24" fill="#F2F2F2"/>
<path d="M35.7609 19.6681C35.7609 19.6681 35.5266 18.0017 34.8047 17.2699C33.8906 16.3069 32.8688 16.3021 32.4 16.2455C29.0438 16 24.0047 16 24.0047 16H23.9953C23.9953 16 18.9563 16 15.6 16.2455C15.1313 16.3021 14.1094 16.3069 13.1953 17.2699C12.4734 18.0017 12.2437 19.6681 12.2437 19.6681C12.2437 19.6681 12 21.6273 12 23.5818V25.4135C12 27.368 12.2391 29.3271 12.2391 29.3271C12.2391 29.3271 12.4734 30.9936 13.1906 31.7254C14.1047 32.6884 15.3047 32.6554 15.8391 32.7592C17.7609 32.9433 24 33 24 33C24 33 29.0438 32.9906 32.4 32.7498C32.8688 32.6931 33.8906 32.6884 34.8047 31.7254C35.5266 30.9936 35.7609 29.3271 35.7609 29.3271C35.7609 29.3271 36 27.3727 36 25.4135V23.5818C36 21.6273 35.7609 19.6681 35.7609 19.6681ZM21.5203 27.637V20.8437L28.0031 24.2522L21.5203 27.637Z" fill="#040404"/>
</svg>
